<svg width="32" height="32" viewBox="0 0 32 32" fill="none" xmlns="http://www.w3.org/2000/svg">
<path d="M16 0.507812C24.5604 0.507812 31.5 7.4474 31.5 16.0078C31.5 24.5682 24.5604 31.5078 16 31.5078C7.43959 31.5078 0.5 24.5682 0.5 16.0078C0.5 7.4474 7.43959 0.507812 16 0.507812Z" stroke="black"/>
<path d="M11.2512 24.7314C10.2356 24.6142 9.28968 24.1563 8.56767 23.4325C7.84567 22.7087 7.39019 21.7616 7.27551 20.7457C7.11266 19.21 6.97266 17.6329 6.97266 16.0257C6.97266 14.4186 7.11123 12.84 7.27551 11.3057C7.39019 10.2898 7.84567 9.34273 8.56767 8.6189C9.28968 7.89508 10.2356 7.43723 11.2512 7.32C12.7955 7.14857 14.3812 7 15.9984 7C17.6155 7 19.2012 7.14714 20.7455 7.32C21.7611 7.43723 22.7071 7.89508 23.4291 8.6189C24.1511 9.34273 24.6066 10.2898 24.7212 11.3057C24.8855 12.8414 25.0241 14.4186 25.0241 16.0257C25.0241 17.6329 24.8855 19.21 24.7212 20.7457C24.6066 21.7616 24.1511 22.7087 23.4291 23.4325C22.7071 24.1563 21.7611 24.6142 20.7455 24.7314C20.1455 24.799 19.5393 24.8595 18.9269 24.9129C18.8295 24.921 18.7315 24.9088 18.6391 24.8769C18.5466 24.8451 18.4619 24.7944 18.3901 24.728C18.3183 24.6616 18.2612 24.581 18.2223 24.4914C18.1834 24.4017 18.1635 24.3049 18.1641 24.2071V20.3571H20.3384C20.5278 20.3571 20.7095 20.2819 20.8434 20.1479C20.9774 20.014 21.0527 19.8323 21.0527 19.6429V17.4614C21.0527 17.272 20.9774 17.0903 20.8434 16.9564C20.7095 16.8224 20.5278 16.7471 20.3384 16.7471H18.1641V15.3043C18.1639 15.1146 18.2011 14.9267 18.2736 14.7514C18.3462 14.576 18.4525 14.4168 18.5867 14.2826C18.7208 14.1485 18.8801 14.0421 19.0554 13.9696C19.2308 13.897 19.4187 13.8598 19.6084 13.86H20.3384C20.5278 13.86 20.7095 13.7847 20.8434 13.6508C20.9774 13.5168 21.0527 13.3352 21.0527 13.1457V11.6929C21.0527 11.3102 20.9006 10.9432 20.6301 10.6726C20.3595 10.402 19.9925 10.25 19.6098 10.25H18.8869C17.738 10.25 16.6362 10.7063 15.8237 11.5186C15.0111 12.3308 14.5545 13.4325 14.5541 14.5814V16.7471H12.3798C12.1904 16.7471 12.0087 16.8224 11.8747 16.9564C11.7408 17.0903 11.6655 17.272 11.6655 17.4614V19.6429C11.6655 19.8323 11.7408 20.014 11.8747 20.1479C12.0087 20.2819 12.1904 20.3571 12.3798 20.3571H14.5555V24.2643C14.5565 24.3609 14.5375 24.4567 14.4997 24.5457C14.4619 24.6346 14.4061 24.7147 14.3357 24.781C14.2654 24.8473 14.1821 24.8983 14.0911 24.9309C14.0001 24.9634 13.9034 24.9767 13.8069 24.97C12.9539 24.9087 12.1009 24.8291 11.2512 24.7314Z" fill="black"/>
</svg>
