<svg width="32" height="32" viewBox="0 0 32 32" fill="none" xmlns="http://www.w3.org/2000/svg">
<path d="M16 0.507812C24.5604 0.507812 31.5 7.4474 31.5 16.0078C31.5 24.5682 24.5604 31.5078 16 31.5078C7.43959 31.5078 0.5 24.5682 0.5 16.0078C0.5 7.4474 7.43959 0.507812 16 0.507812Z" stroke="black"/>
<path d="M16.0006 13.4029C14.567 13.4029 13.3971 14.5728 13.3971 16.0064C13.3971 17.44 14.567 18.61 16.0006 18.61C17.4342 18.61 18.6041 17.44 18.6041 16.0064C18.6041 14.5728 17.4342 13.4029 16.0006 13.4029ZM23.8092 16.0064C23.8092 14.9283 23.8189 13.86 23.7584 12.7838C23.6978 11.5338 23.4127 10.4244 22.4986 9.51035C21.5826 8.59433 20.4752 8.31113 19.2252 8.25058C18.1471 8.19003 17.0787 8.1998 16.0025 8.1998C14.9244 8.1998 13.856 8.19003 12.7799 8.25058C11.5299 8.31113 10.4205 8.59628 9.50644 9.51035C8.59042 10.4264 8.30722 11.5338 8.24667 12.7838C8.18613 13.8619 8.19589 14.9303 8.19589 16.0064C8.19589 17.0826 8.18613 18.1529 8.24667 19.2291C8.30722 20.4791 8.59238 21.5885 9.50644 22.5025C10.4225 23.4185 11.5299 23.7018 12.7799 23.7623C13.858 23.8228 14.9264 23.8131 16.0025 23.8131C17.0807 23.8131 18.149 23.8228 19.2252 23.7623C20.4752 23.7018 21.5846 23.4166 22.4986 22.5025C23.4146 21.5865 23.6978 20.4791 23.7584 19.2291C23.8209 18.1529 23.8092 17.0846 23.8092 16.0064ZM16.0006 20.0123C13.7838 20.0123 11.9947 18.2232 11.9947 16.0064C11.9947 13.7896 13.7838 12.0006 16.0006 12.0006C18.2174 12.0006 20.0064 13.7896 20.0064 16.0064C20.0064 18.2232 18.2174 20.0123 16.0006 20.0123ZM20.1705 12.7721C19.6529 12.7721 19.235 12.3541 19.235 11.8365C19.235 11.3189 19.6529 10.901 20.1705 10.901C20.6881 10.901 21.106 11.3189 21.106 11.8365C21.1062 11.9594 21.0821 12.0811 21.0351 12.1947C20.9882 12.3083 20.9193 12.4115 20.8324 12.4984C20.7455 12.5853 20.6423 12.6542 20.5287 12.7012C20.4151 12.7481 20.2934 12.7722 20.1705 12.7721Z" fill="black"/>
</svg>
