<svg width="32" height="32" viewBox="0 0 32 32" fill="none" xmlns="http://www.w3.org/2000/svg">
<path d="M16 0.5C24.5604 0.5 31.5 7.43959 31.5 16C31.5 24.5604 24.5604 31.5 16 31.5C7.43959 31.5 0.5 24.5604 0.5 16C0.5 7.43959 7.43959 0.5 16 0.5Z" stroke="black"/>
<path fill-rule="evenodd" clip-rule="evenodd" d="M9.58333 6.14453C8.91477 6.14453 8.27358 6.41012 7.80084 6.88287C7.32809 7.35561 7.0625 7.9968 7.0625 8.66536C7.0625 9.33393 7.32809 9.97512 7.80084 10.4479C8.27358 10.9206 8.91477 11.1862 9.58333 11.1862C10.2519 11.1862 10.8931 10.9206 11.3658 10.4479C11.8386 9.97512 12.1042 9.33393 12.1042 8.66536C12.1042 7.9968 11.8386 7.35561 11.3658 6.88287C10.8931 6.41012 10.2519 6.14453 9.58333 6.14453ZM8.4375 8.66536C8.4375 8.36147 8.55822 8.07002 8.77311 7.85514C8.98799 7.64025 9.27944 7.51953 9.58333 7.51953C9.88723 7.51953 10.1787 7.64025 10.3936 7.85514C10.6084 8.07002 10.7292 8.36147 10.7292 8.66536C10.7292 8.96926 10.6084 9.26071 10.3936 9.47559C10.1787 9.69048 9.88723 9.8112 9.58333 9.8112C9.27944 9.8112 8.98799 9.69048 8.77311 9.47559C8.55822 9.26071 8.4375 8.96926 8.4375 8.66536ZM7.0625 12.332C7.0625 12.1497 7.13493 11.9748 7.26386 11.8459C7.3928 11.717 7.56766 11.6445 7.75 11.6445H11.4167C11.599 11.6445 11.7739 11.717 11.9028 11.8459C12.0317 11.9748 12.1042 12.1497 12.1042 12.332V24.2487C12.1042 24.431 12.0317 24.6059 11.9028 24.7348C11.7739 24.8638 11.599 24.9362 11.4167 24.9362H7.75C7.56766 24.9362 7.3928 24.8638 7.26386 24.7348C7.13493 24.6059 7.0625 24.431 7.0625 24.2487V12.332ZM8.4375 13.0195V23.5612H10.7292V13.0195H8.4375ZM13.4792 12.332C13.4792 12.1497 13.5516 11.9748 13.6805 11.8459C13.8095 11.717 13.9843 11.6445 14.1667 11.6445H17.8333C18.0157 11.6445 18.1905 11.717 18.3195 11.8459C18.4484 11.9748 18.5208 12.1497 18.5208 12.332V12.7299L18.9196 12.5584C19.6071 12.2647 20.3365 12.0807 21.0811 12.013C23.6248 11.782 25.8542 13.7804 25.8542 16.347V24.2487C25.8542 24.431 25.7817 24.6059 25.6528 24.7348C25.5239 24.8638 25.349 24.9362 25.1667 24.9362H21.5C21.3177 24.9362 21.1428 24.8638 21.0139 24.7348C20.8849 24.6059 20.8125 24.431 20.8125 24.2487V17.832C20.8125 17.5281 20.6918 17.2367 20.4769 17.0218C20.262 16.8069 19.9706 16.6862 19.6667 16.6862C19.3628 16.6862 19.0713 16.8069 18.8564 17.0218C18.6416 17.2367 18.5208 17.5281 18.5208 17.832V24.2487C18.5208 24.431 18.4484 24.6059 18.3195 24.7348C18.1905 24.8638 18.0157 24.9362 17.8333 24.9362H14.1667C13.9843 24.9362 13.8095 24.8638 13.6805 24.7348C13.5516 24.6059 13.4792 24.431 13.4792 24.2487V12.332ZM14.8542 13.0195V23.5612H17.1458V17.832C17.1458 17.1635 17.4114 16.5223 17.8842 16.0495C18.3569 15.5768 18.9981 15.3112 19.6667 15.3112C20.3352 15.3112 20.9764 15.5768 21.4492 16.0495C21.9219 16.5223 22.1875 17.1635 22.1875 17.832V23.5612H24.4792V16.347C24.4792 14.6017 22.9566 13.223 21.2067 13.3825C20.6055 13.4371 20.0165 13.5855 19.4613 13.8225L18.1047 14.4046C18 14.4496 17.8859 14.4678 17.7724 14.4577C17.659 14.4476 17.5498 14.4095 17.4548 14.3468C17.3597 14.2841 17.2817 14.1988 17.2278 14.0984C17.1739 13.9981 17.1457 13.886 17.1458 13.7721V13.0195H14.8542Z" fill="black"/>
</svg>
