<svg width="32" height="32" viewBox="0 0 32 32" fill="none" xmlns="http://www.w3.org/2000/svg">
<path d="M16 0.507812C24.5604 0.507812 31.5 7.4474 31.5 16.0078C31.5 24.5682 24.5604 31.5078 16 31.5078C7.43959 31.5078 0.5 24.5682 0.5 16.0078C0.5 7.4474 7.43959 0.507812 16 0.507812Z" stroke="black"/>
<path fill-rule="evenodd" clip-rule="evenodd" d="M16.0016 7.67578C14.6755 7.67578 13.4037 8.20257 12.4661 9.14025C11.5284 10.0779 11.0016 11.3497 11.0016 12.6758V14.2383L10.2516 13.6758C10.1641 13.6101 10.0644 13.5623 9.95842 13.5352C9.85241 13.508 9.74208 13.502 9.63375 13.5175C9.52541 13.533 9.42119 13.5696 9.32702 13.6254C9.23286 13.6811 9.1506 13.7549 9.08493 13.8424C9.01927 13.93 8.9715 14.0296 8.94434 14.1356C8.91718 14.2416 8.91117 14.352 8.92664 14.4603C8.94212 14.5686 8.97878 14.6729 9.03454 14.767C9.09029 14.8612 9.16405 14.9435 9.2516 15.0091L10.8066 16.1758C10.4366 17.1491 9.5341 18.1674 8.07327 19.0449C7.97745 19.1038 7.89438 19.1812 7.82898 19.2726C7.76357 19.3641 7.71714 19.4677 7.69244 19.5774C7.66774 19.687 7.66526 19.8006 7.68516 19.9112C7.70505 20.0219 7.74691 20.1274 7.80827 20.2216C8.73993 21.6191 10.2183 22.6758 11.8349 22.6758C13.3216 22.6758 14.3408 24.3424 16.0016 24.3424C17.6774 24.3424 18.6758 22.6758 20.1683 22.6758C21.7849 22.6758 23.2633 21.6191 24.1949 20.2216C24.2563 20.1274 24.2982 20.0219 24.318 19.9112C24.3379 19.8006 24.3355 19.687 24.3108 19.5774C24.2861 19.4677 24.2396 19.3641 24.1742 19.2726C24.1088 19.1812 24.0258 19.1038 23.9299 19.0449C22.4691 18.1674 21.5666 17.1491 21.1966 16.1758L22.7516 15.0091C22.9284 14.8765 23.0453 14.6791 23.0766 14.4603C23.1078 14.2415 23.0509 14.0193 22.9183 13.8424C22.7857 13.6656 22.5882 13.5487 22.3695 13.5175C22.1507 13.4862 21.9284 13.5432 21.7516 13.6758L21.0016 14.2383V12.6758C21.0016 11.3497 20.4748 10.0779 19.5371 9.14025C18.5995 8.20257 17.3277 7.67578 16.0016 7.67578Z" fill="black"/>
</svg>
