<svg width="32" height="32" viewBox="0 0 32 32" fill="none" xmlns="http://www.w3.org/2000/svg">
<path d="M16 0.507812C24.5604 0.507812 31.5 7.4474 31.5 16.0078C31.5 24.5682 24.5604 31.5078 16 31.5078C7.43959 31.5078 0.5 24.5682 0.5 16.0078C0.5 7.4474 7.43959 0.507812 16 0.507812Z" stroke="black"/>
<g clip-path="url(#clip0_42001_1385)">
<path fill-rule="evenodd" clip-rule="evenodd" d="M11.2226 6.68471C12.7569 6.51328 14.3583 6.36328 15.9983 6.36328C17.6383 6.36328 19.2398 6.51328 20.774 6.68471C21.9402 6.81842 23.0265 7.34381 23.8553 8.17498C24.6841 9.00614 25.2065 10.0939 25.3369 11.2604C25.5012 12.7876 25.6412 14.3776 25.6412 16.0061C25.6412 17.6347 25.5012 19.2247 25.3369 20.7519C25.2065 21.9184 24.6841 23.0061 23.8553 23.8373C23.0265 24.6685 21.9402 25.1939 20.774 25.3276C19.2398 25.499 17.6383 25.649 15.9983 25.649C14.3583 25.649 12.7569 25.499 11.2226 25.3276C10.0565 25.1939 8.97017 24.6685 8.14134 23.8373C7.31252 23.0061 6.79019 21.9184 6.65975 20.7519C6.49547 19.2247 6.35547 17.6347 6.35547 16.0061C6.35547 14.3776 6.49547 12.7876 6.65975 11.2604C6.79019 10.0939 7.31252 9.00614 8.14134 8.17498C8.97017 7.34381 10.0565 6.81842 11.2226 6.68471ZM17.9012 10.1233C17.8519 9.90953 17.7256 9.72141 17.5464 9.59482C17.3673 9.46823 17.1478 9.41202 16.9298 9.43693C16.7119 9.46183 16.5107 9.5661 16.3647 9.72984C16.2187 9.89359 16.1382 10.1053 16.1383 10.3247V18.5776C16.1383 19.0161 16.0083 19.4447 15.7647 19.8093C15.521 20.174 15.1748 20.4581 14.7696 20.6259C14.3645 20.7938 13.9187 20.8377 13.4886 20.7521C13.0586 20.6666 12.6635 20.4554 12.3534 20.1453C12.0434 19.8353 11.8322 19.4402 11.7466 19.0101C11.6611 18.58 11.705 18.1342 11.8728 17.7291C12.0406 17.324 12.3248 16.9777 12.6894 16.7341C13.054 16.4905 13.4827 16.3604 13.9212 16.3604C14.158 16.3604 14.3851 16.2664 14.5525 16.0989C14.72 15.9315 14.814 15.7044 14.814 15.4676C14.814 15.2308 14.72 15.0037 14.5525 14.8362C14.3851 14.6688 14.158 14.5747 13.9212 14.5747C13.1295 14.5747 12.3556 14.8095 11.6973 15.2493C11.039 15.6892 10.526 16.3143 10.223 17.0457C9.92006 17.7772 9.84079 18.582 9.99524 19.3585C10.1497 20.135 10.5309 20.8482 11.0907 21.408C11.6505 21.9678 12.3638 22.3491 13.1403 22.5035C13.9167 22.658 14.7216 22.5787 15.453 22.2757C16.1844 21.9728 16.8096 21.4597 17.2494 20.8014C17.6893 20.1432 17.924 19.3693 17.924 18.5776V13.5919C18.7812 14.3204 19.8869 14.7204 21.184 14.7204C21.4208 14.7204 21.6479 14.6264 21.8154 14.4589C21.9828 14.2915 22.0769 14.0644 22.0769 13.8276C22.0769 13.5908 21.9828 13.3637 21.8154 13.1962C21.6479 13.0288 21.4208 12.9347 21.184 12.9347C20.2412 12.9347 19.5412 12.6433 19.0255 12.1847C18.4998 11.7161 18.1098 11.019 17.9012 10.1233Z" fill="black"/>
</g>
<defs>
<clipPath id="clip0_42001_1385">
<rect width="20" height="20" fill="white" transform="translate(6 6.00781)"/>
</clipPath>
</defs>
</svg>
