<svg width="32" height="32" viewBox="0 0 32 32" fill="none" xmlns="http://www.w3.org/2000/svg">
<path d="M16 0.507812C24.5604 0.507812 31.5 7.4474 31.5 16.0078C31.5 24.5682 24.5604 31.5078 16 31.5078C7.43959 31.5078 0.5 24.5682 0.5 16.0078C0.5 7.4474 7.43959 0.507812 16 0.507812Z" stroke="black"/>
<path d="M16.0013 7.67578C20.6038 7.67578 24.3346 11.4066 24.3346 16.0091C24.3346 20.6116 20.6038 24.3424 16.0013 24.3424C14.5286 24.345 13.0818 23.9552 11.8096 23.2133L7.67131 24.3424L8.79798 20.2024C8.05545 18.9299 7.6654 17.4825 7.66798 16.0091C7.66798 11.4066 11.3988 7.67578 16.0013 7.67578ZM13.1613 12.0924L12.9946 12.0991C12.8869 12.1065 12.7816 12.1348 12.6846 12.1824C12.5943 12.2337 12.5118 12.2977 12.4396 12.3724C12.3396 12.4666 12.283 12.5483 12.2221 12.6274C11.9139 13.0282 11.748 13.5202 11.7505 14.0258C11.7521 14.4341 11.8588 14.8316 12.0255 15.2033C12.3663 15.9549 12.9271 16.7508 13.6671 17.4883C13.8455 17.6658 14.0205 17.8441 14.2088 18.0099C15.1283 18.8194 16.224 19.4033 17.4088 19.7149L17.8821 19.7874C18.0363 19.7958 18.1905 19.7841 18.3455 19.7766C18.5881 19.7638 18.8251 19.6981 19.0396 19.5841C19.1487 19.5277 19.2552 19.4666 19.3588 19.4008C19.3588 19.4008 19.3941 19.3769 19.463 19.3258C19.5755 19.2424 19.6446 19.1833 19.738 19.0858C19.808 19.0136 19.8663 18.9297 19.913 18.8341C19.978 18.6983 20.043 18.4391 20.0696 18.2233C20.0896 18.0583 20.0838 17.9683 20.0813 17.9124C20.078 17.8233 20.0038 17.7308 19.923 17.6916L19.438 17.4741C19.438 17.4741 18.713 17.1583 18.2696 16.9566C18.2232 16.9364 18.1735 16.9248 18.123 16.9224C18.066 16.9165 18.0083 16.9228 17.954 16.9411C17.8996 16.9594 17.8498 16.9891 17.808 17.0283C17.8038 17.0266 17.748 17.0741 17.1455 17.8041C17.1109 17.8506 17.0633 17.8857 17.0087 17.905C16.954 17.9243 16.8949 17.9269 16.8388 17.9124C16.7845 17.898 16.7313 17.8796 16.6796 17.8574C16.5763 17.8141 16.5405 17.7974 16.4696 17.7674C15.9912 17.559 15.5483 17.277 15.1571 16.9316C15.0521 16.8399 14.9546 16.7399 14.8546 16.6433C14.5268 16.3293 14.2411 15.9741 14.0046 15.5866L13.9555 15.5074C13.9207 15.4539 13.8922 15.3966 13.8705 15.3366C13.8388 15.2141 13.9213 15.1158 13.9213 15.1158C13.9213 15.1158 14.1238 14.8941 14.218 14.7741C14.3096 14.6574 14.3871 14.5441 14.4371 14.4633C14.5355 14.3049 14.5663 14.1424 14.5146 14.0166C14.2813 13.4466 14.0402 12.8797 13.7913 12.3158C13.7421 12.2041 13.5963 12.1241 13.4638 12.1083C13.4188 12.1027 13.3738 12.0983 13.3288 12.0949C13.2169 12.0885 13.1047 12.0896 12.993 12.0983L13.1613 12.0924Z" fill="black"/>
</svg>
