<svg width="32" height="32" viewBox="0 0 32 32" fill="none" xmlns="http://www.w3.org/2000/svg">
<path d="M16 0.507812C24.5604 0.507812 31.5 7.4474 31.5 16.0078C31.5 24.5682 24.5604 31.5078 16 31.5078C7.43959 31.5078 0.5 24.5682 0.5 16.0078C0.5 7.4474 7.43959 0.507812 16 0.507812Z" stroke="black"/>
<g clip-path="url(#clip0_42001_1382)">
<path d="M21.0312 8.07812H23.7153L17.8528 14.7959L24.75 23.9375H19.3502L15.1206 18.3922L10.2808 23.9375H7.59563L13.8661 16.7516L7.25 8.07812H12.7877L16.6103 13.1455L21.0312 8.07812ZM20.0906 22.3275H21.5781L11.9783 9.60391H10.3836L20.0906 22.3275Z" fill="black"/>
</g>
<defs>
<clipPath id="clip0_42001_1382">
<rect width="17.5" height="17.5" fill="white" transform="translate(7.25 7.25781)"/>
</clipPath>
</defs>
</svg>
