<svg width="32" height="32" viewBox="0 0 32 32" fill="none" xmlns="http://www.w3.org/2000/svg">
<path d="M16 0.507812C24.5604 0.507812 31.5 7.4474 31.5 16.0078C31.5 24.5682 24.5604 31.5078 16 31.5078C7.43959 31.5078 0.5 24.5682 0.5 16.0078C0.5 7.4474 7.43959 0.507812 16 0.507812Z" stroke="black"/>
<path d="M16.2046 9.33984C16.6496 9.34234 17.763 9.35318 18.9463 9.40068L19.3663 9.41901C20.5571 9.47484 21.7471 9.57151 22.338 9.73568C23.1255 9.95734 23.7438 10.6023 23.953 11.4207C24.2863 12.7207 24.328 15.2557 24.333 15.8698L24.3338 15.9965V16.1415C24.328 16.7557 24.2863 19.2915 23.953 20.5907C23.7413 21.4115 23.1221 22.0573 22.338 22.2757C21.7471 22.4398 20.5571 22.5365 19.3663 22.5923L18.9463 22.6115C17.763 22.6582 16.6496 22.6698 16.2046 22.6715L16.0088 22.6723H15.7963C14.8546 22.6665 10.9163 22.624 9.66297 22.2757C8.8763 22.054 8.25714 21.409 8.04797 20.5907C7.71464 19.2907 7.67297 16.7557 7.66797 16.1415V15.8698C7.67297 15.2557 7.71464 12.7198 8.04797 11.4207C8.25964 10.5998 8.8788 9.95401 9.6638 9.73651C10.9163 9.38734 14.8555 9.34484 15.7971 9.33984H16.2046ZM14.3338 13.0898V18.9232L19.3338 16.0065L14.3338 13.0898Z" fill="black"/>
</svg>
