<svg width="300" height="518" viewBox="0 0 300 518" fill="none" xmlns="http://www.w3.org/2000/svg">
<path d="M45.1958 478.568C45.4374 480.993 45.9539 483.33 46.7208 485.541C47.1875 486.972 47.7697 488.351 48.4271 489.662C64.309 486.744 75.5604 472.081 73.9309 455.726C73.8171 454.584 73.6466 453.487 73.4164 452.397C72.8384 449.641 71.9112 447.041 70.6996 444.632C54.8178 447.55 43.5663 462.213 45.1958 478.568Z" fill="#D6B14D"/>
<path d="M48.5653 494.238C49.8712 497.792 51.8453 501.158 54.494 504.173C65.3589 516.511 83.7488 518.241 96.7152 508.609C95.8542 506.266 94.7202 504.031 93.2948 501.906C92.535 500.788 91.6999 499.717 90.7865 498.674C80.425 486.914 63.1893 484.785 50.3835 492.984C49.7539 493.37 49.1488 493.795 48.5653 494.238Z" fill="#D6B14D"/>
<path d="M82.6056 463.331C83.2631 465.678 84.176 467.89 85.3137 469.935C86.0209 471.264 86.8329 472.522 87.7071 473.699C102.845 468.078 111.391 451.69 106.957 435.864C106.647 434.758 106.29 433.708 105.875 432.674C104.829 430.059 103.466 427.659 101.856 425.496C86.7179 431.117 78.172 447.504 82.6056 463.331Z" fill="#D6B14D"/>
<path d="M88.6358 478.186C90.5367 481.46 93.0632 484.434 96.1935 486.946C109.028 497.218 127.441 495.742 138.546 484.013C137.292 481.854 135.789 479.849 134.017 478.002C133.076 477.032 132.068 476.122 130.988 475.253C118.749 465.462 101.405 466.346 90.2097 476.636C89.6565 477.126 89.134 477.649 88.6358 478.186Z" fill="#D6B14D"/>
<path d="M115.418 445.006C116.404 447.235 117.623 449.295 119.041 451.156C119.93 452.371 120.913 453.5 121.947 454.54C136.128 446.817 142.249 429.378 135.603 414.346C135.139 413.296 134.635 412.307 134.076 411.343C132.668 408.904 130.977 406.723 129.075 404.811C114.894 412.534 108.773 429.974 115.418 445.006Z" fill="#D6B14D"/>
<path d="M123.487 458.844C125.836 461.814 128.76 464.397 132.217 466.436C146.386 474.773 164.399 470.685 173.718 457.492C172.169 455.534 170.395 453.764 168.378 452.189C167.308 451.363 166.181 450.606 164.988 449.9C151.477 441.955 134.436 445.304 124.824 457.086C124.346 457.649 123.903 458.241 123.487 458.844Z" fill="#D6B14D"/>
<path d="M144.551 421.392C145.835 423.464 147.327 425.335 148.988 426.983C150.037 428.063 151.166 429.046 152.333 429.934C165.312 420.326 168.965 402.208 160.306 388.238C159.701 387.262 159.065 386.353 158.379 385.475C156.647 383.254 154.671 381.327 152.523 379.697C139.545 389.305 135.892 407.422 144.551 421.392Z" fill="#D6B14D"/>
<path d="M154.478 434C157.214 436.617 160.468 438.771 164.173 440.313C179.358 446.613 196.634 440.076 204.04 425.722C202.236 423.996 200.235 422.488 198.02 421.207C196.845 420.537 195.624 419.943 194.345 419.408C179.866 413.406 163.452 419.078 155.559 432.074C155.164 432.698 154.807 433.346 154.478 434Z" fill="#D6B14D"/>
<path d="M174.495 394.092C176.213 395.82 178.089 397.307 180.079 398.538C181.344 399.354 182.666 400.056 184.003 400.658C194.482 388.372 193.956 369.897 182.371 358.239C181.561 357.424 180.737 356.682 179.871 355.981C177.683 354.208 175.323 352.776 172.863 351.672C162.384 363.959 162.91 382.433 174.495 394.092Z" fill="#D6B14D"/>
<path d="M187.003 404.136C190.259 406.068 193.915 407.434 197.872 408.101C214.086 410.815 229.444 400.551 233.423 384.897C231.277 383.623 228.987 382.605 226.54 381.856C225.245 381.468 223.921 381.164 222.555 380.932C207.095 378.348 192.382 387.574 187.622 402.016C187.378 402.713 187.177 403.424 187.003 404.136Z" fill="#D6B14D"/>
<path d="M197.04 360.639C198.978 362.117 201.039 363.334 203.178 364.282C204.543 364.917 205.949 365.432 207.356 365.846C216.057 352.243 213.012 334.013 199.943 324.047C199.03 323.351 198.112 322.727 197.157 322.152C194.748 320.694 192.215 319.599 189.626 318.841C180.925 332.444 183.97 350.673 197.04 360.639Z" fill="#D6B14D"/>
<path d="M210.803 368.864C214.292 370.334 218.1 371.187 222.111 371.307C238.544 371.781 252.355 359.515 254.159 343.464C251.858 342.495 249.451 341.799 246.924 341.392C245.588 341.184 244.236 341.064 242.851 341.021C227.183 340.574 213.868 351.723 211.126 366.679C210.979 367.404 210.877 368.136 210.803 368.864Z" fill="#D6B14D"/>
<path d="M211.422 322.161C213.541 323.364 215.747 324.293 217.995 324.944C219.433 325.389 220.895 325.711 222.345 325.931C229.136 311.281 223.666 293.627 209.374 285.51C208.376 284.943 207.382 284.449 206.359 284.007C203.776 282.887 201.118 282.143 198.451 281.74C191.66 296.39 197.13 314.044 211.422 322.161Z" fill="#D6B14D"/>
<path d="M226.166 328.474C229.822 329.461 233.71 329.793 237.701 329.373C254.048 327.63 266.083 313.618 265.71 297.47C263.3 296.819 260.82 296.454 258.262 296.39C256.91 296.364 255.554 296.427 254.175 296.571C238.59 298.236 226.897 311.076 226.193 326.265C226.145 327.003 226.142 327.742 226.166 328.474Z" fill="#D6B14D"/>
<path d="M221.319 286.197C223.584 287.099 225.896 287.715 228.212 288.052C229.698 288.296 231.19 288.414 232.656 288.433C237.373 272.99 229.532 256.253 214.262 250.175C213.195 249.75 212.143 249.397 211.069 249.1C208.356 248.345 205.621 247.972 202.925 247.939C198.208 263.382 206.049 280.119 221.319 286.197Z" fill="#D6B14D"/>
<path d="M236.792 290.412C240.548 290.888 244.445 290.684 248.341 289.72C264.294 285.75 274.292 270.219 271.707 254.275C269.231 253.961 266.724 253.94 264.182 254.227C262.839 254.387 261.504 254.636 260.158 254.967C244.949 258.755 235.129 273.079 236.515 288.221C236.569 288.958 236.667 289.69 236.792 290.412Z" fill="#D6B14D"/>
<path d="M225.983 247.814C228.369 248.311 230.754 248.519 233.093 248.451C234.598 248.435 236.088 248.294 237.536 248.06C239.517 232.034 228.905 216.902 212.814 213.55C211.69 213.316 210.593 213.15 209.484 213.042C206.682 212.767 203.924 212.871 201.262 213.304C199.281 229.33 209.893 244.462 225.983 247.814Z" fill="#D6B14D"/>
<path d="M241.944 249.307C245.726 249.128 249.529 248.254 253.2 246.632C268.229 239.969 275.397 222.945 270.099 207.686C267.605 207.805 265.133 208.216 262.678 208.938C261.383 209.328 260.111 209.803 258.843 210.362C244.516 216.718 237.314 232.521 241.293 247.197C241.473 247.913 241.697 248.618 241.944 249.307Z" fill="#D6B14D"/>
<path d="M224.218 207.939C226.653 208.035 229.039 207.846 231.335 207.392C232.817 207.127 234.263 206.741 235.652 206.271C234.955 190.138 221.987 176.97 205.564 176.325C204.417 176.28 203.307 176.297 202.196 176.375C199.386 176.566 196.683 177.126 194.13 177.993C194.826 194.126 207.795 207.294 224.218 207.939Z" fill="#D6B14D"/>
<path d="M240.207 206.771C243.907 205.968 247.514 204.478 250.866 202.271C264.586 193.214 268.839 175.239 261.091 161.067C258.651 161.596 256.281 162.411 253.98 163.529C252.767 164.127 251.591 164.806 250.432 165.567C237.354 174.205 232.865 190.981 239.216 204.797C239.512 205.474 239.849 206.132 240.207 206.771Z" fill="#D6B14D"/>
<path d="M218.581 172.421C221.004 172.161 223.337 171.628 225.543 170.845C226.97 170.368 228.345 169.776 229.651 169.109C226.617 153.248 211.873 142.104 195.53 143.853C194.389 143.975 193.293 144.154 192.205 144.392C189.453 144.99 186.86 145.936 184.46 147.165C187.494 163.025 202.238 174.17 218.581 172.421Z" fill="#D6B14D"/>
<path d="M234.237 168.945C237.781 167.613 241.132 165.615 244.128 162.944C256.386 151.989 257.982 133.587 248.256 120.691C245.919 121.57 243.693 122.72 241.578 124.161C240.465 124.929 239.401 125.772 238.365 126.693C226.68 137.14 224.678 154.39 232.969 167.136C233.361 167.763 233.79 168.365 234.237 168.945Z" fill="#D6B14D"/>
<path d="M203.978 132.577C206.337 131.965 208.567 131.096 210.633 129.998C211.976 129.316 213.249 128.529 214.443 127.678C209.116 112.434 192.897 103.572 176.987 107.699C175.876 107.987 174.819 108.324 173.777 108.719C171.143 109.715 168.716 111.031 166.522 112.599C171.849 127.842 188.068 136.704 203.978 132.577Z" fill="#D6B14D"/>
<path d="M218.96 126.851C222.271 125.013 225.293 122.545 227.865 119.464C238.384 106.83 237.264 88.3929 225.752 77.0628C223.569 78.2741 221.535 79.7384 219.655 81.4739C218.667 82.3967 217.737 83.3866 216.848 84.4495C206.822 96.4971 207.37 113.855 217.441 125.247C217.92 125.81 218.433 126.342 218.96 126.851Z" fill="#D6B14D"/>
<path d="M186.119 99.7502C188.353 98.7758 190.418 97.5667 192.287 96.1581C193.506 95.2745 194.64 94.2971 195.685 93.269C188.032 79.05 170.624 72.8433 155.559 79.4151C154.506 79.8741 153.515 80.373 152.548 80.9268C150.103 82.323 147.913 84.0035 145.992 85.8963C153.645 100.115 171.054 106.322 186.119 99.7502Z" fill="#D6B14D"/>
<path d="M200.009 91.7432C202.99 89.4093 205.587 86.4973 207.644 83.0507C216.05 68.9229 212.051 50.8898 198.904 41.5064C196.939 43.0453 195.16 44.8107 193.575 46.8196C192.744 47.8861 191.981 49.0096 191.269 50.1989C183.258 63.6705 186.523 80.7274 198.257 90.3978C198.818 90.8783 199.408 91.3238 200.009 91.7432Z" fill="#D6B14D"/>
<path d="M161.31 68.0405C163.364 66.7296 165.216 65.2132 166.842 63.5304C167.909 62.4675 168.876 61.3252 169.749 60.1466C159.972 47.2951 141.808 43.8794 127.952 52.7202C126.984 53.3377 126.083 53.9851 125.214 54.6829C123.017 56.4435 121.116 58.4448 119.514 60.6141C129.291 73.4656 147.454 76.8813 161.31 68.0405Z" fill="#D6B14D"/>
<path d="M173.77 57.96C176.351 55.1897 178.463 51.9082 179.956 48.1831C186.057 32.9171 179.294 15.7284 164.845 8.51019C163.143 10.3367 161.661 12.358 160.409 14.5895C159.754 15.7726 159.176 17.0012 158.659 18.287C152.846 32.8432 158.732 49.1821 171.83 56.9042C172.46 57.2913 173.112 57.6394 173.77 57.96Z" fill="#D6B14D"/>
</svg>
