<svg width="10" height="13" viewBox="0 0 10 13" fill="none" xmlns="http://www.w3.org/2000/svg">
<path d="M5.51813 0.0439997V1.228C6.26479 1.324 6.92613 1.52667 7.50213 1.836V3.34C6.75546 3.04133 6.09413 2.86533 5.51813 2.812V5.292C6.60613 5.676 7.35279 6.06533 7.75813 6.46C8.21679 6.88667 8.44613 7.452 8.44613 8.156C8.44613 8.90267 8.19546 9.5 7.69413 9.948C7.18213 10.4173 6.45679 10.7053 5.51813 10.812V12.38H4.51013V10.844C3.71013 10.8333 2.99013 10.7213 2.35013 10.508L1.55013 9.516V8.844C2.51013 9.164 3.44879 9.324 4.36613 9.324C4.43013 9.324 4.47813 9.324 4.51013 9.324V6.7C3.43279 6.316 2.69146 5.91067 2.28613 5.484C1.85946 5.05733 1.64613 4.49733 1.64613 3.804C1.64613 3.08933 1.90213 2.508 2.41413 2.06C2.93679 1.60133 3.63546 1.33467 4.51013 1.26V0.0439997H5.51813ZM4.51013 4.892V2.844C4.20079 2.876 3.95546 2.972 3.77413 3.132C3.62479 3.30267 3.55013 3.516 3.55013 3.772C3.55013 4.01733 3.60879 4.21467 3.72613 4.364C3.85413 4.56667 4.11546 4.74267 4.51013 4.892ZM5.51813 7.1V9.244C5.82746 9.20133 6.06746 9.1 6.23813 8.94C6.44079 8.76933 6.54213 8.51867 6.54213 8.188C6.54213 7.932 6.46213 7.71867 6.30213 7.548C6.17413 7.39867 5.91279 7.24933 5.51813 7.1Z" fill="#F2755E"/>
</svg>
