<svg width="64" height="64" viewBox="0 0 64 64" fill="none" xmlns="http://www.w3.org/2000/svg">
<path d="M0 32.0078C0 14.3347 14.3269 0.0078125 32 0.0078125C49.6731 0.0078125 64 14.3347 64 32.0078C64 49.6809 49.6731 64.0078 32 64.0078C14.3269 64.0078 0 49.6809 0 32.0078Z" fill="#FDFFFF" fill-opacity="0.2"/>
<path d="M18 27.5664V39.0064C18 40.0673 18.4214 41.0847 19.1716 41.8348C19.9217 42.585 20.9391 43.0064 22 43.0064H42C43.0609 43.0064 44.0783 42.585 44.8284 41.8348C45.5786 41.0847 46 40.0673 46 39.0064V27.5664L34.096 34.8904C33.4657 35.2782 32.7401 35.4835 32 35.4835C31.2599 35.4835 30.5343 35.2782 29.904 34.8904L18 27.5664Z" fill="#FDFFFF"/>
<path d="M46 25.2185V25.0078C46 23.9469 45.5786 22.9295 44.8284 22.1794C44.0783 21.4292 43.0609 21.0078 42 21.0078H22C20.9391 21.0078 19.9217 21.4292 19.1716 22.1794C18.4214 22.9295 18 23.9469 18 25.0078V25.2185L30.952 33.1891C31.2672 33.383 31.63 33.4857 32 33.4857C32.37 33.4857 32.7328 33.383 33.048 33.1891L46 25.2185Z" fill="#FDFFFF"/>
</svg>
