<svg width="64" height="64" viewBox="0 0 64 64" fill="none" xmlns="http://www.w3.org/2000/svg">
<path d="M0 32.0078C0 14.3347 14.3269 0.0078125 32 0.0078125C49.6731 0.0078125 64 14.3347 64 32.0078C64 49.6809 49.6731 64.0078 32 64.0078C14.3269 64.0078 0 49.6809 0 32.0078Z" fill="#FDFFFF" fill-opacity="0.2"/>
<path fill-rule="evenodd" clip-rule="evenodd" d="M31.3867 45.8091L31.48 45.8625L31.5173 45.8838C31.6654 45.9639 31.831 46.0058 31.9993 46.0058C32.1676 46.0058 32.3333 45.9639 32.4813 45.8838L32.5187 45.8638L32.6133 45.8091C33.1348 45.4999 33.6437 45.1699 34.1387 44.8198C35.4201 43.9151 36.6174 42.8968 37.716 41.7771C40.308 39.1238 43 35.1371 43 30.0078C43 27.0904 41.8411 24.2925 39.7782 22.2296C37.7153 20.1667 34.9174 19.0078 32 19.0078C29.0826 19.0078 26.2847 20.1667 24.2218 22.2296C22.1589 24.2925 21 27.0904 21 30.0078C21 35.1358 23.6933 39.1238 26.284 41.7771C27.3822 42.8967 28.579 43.9151 29.86 44.8198C30.3554 45.1699 30.8647 45.5 31.3867 45.8091ZM32 34.0078C33.0609 34.0078 34.0783 33.5864 34.8284 32.8362C35.5786 32.0861 36 31.0687 36 30.0078C36 28.9469 35.5786 27.9295 34.8284 27.1794C34.0783 26.4292 33.0609 26.0078 32 26.0078C30.9391 26.0078 29.9217 26.4292 29.1716 27.1794C28.4214 27.9295 28 28.9469 28 30.0078C28 31.0687 28.4214 32.0861 29.1716 32.8362C29.9217 33.5864 30.9391 34.0078 32 34.0078Z" fill="#FDFFFF"/>
</svg>
