<svg width="64" height="64" viewBox="0 0 64 64" fill="none" xmlns="http://www.w3.org/2000/svg">
<path d="M0 32.0078C0 14.3347 14.3269 0.0078125 32 0.0078125C49.6731 0.0078125 64 14.3347 64 32.0078C64 49.6809 49.6731 64.0078 32 64.0078C14.3269 64.0078 0 49.6809 0 32.0078Z" fill="#FDFFFF" fill-opacity="0.2"/>
<path d="M37 18.6758C37.7956 18.6758 38.5587 18.9919 39.1213 19.5545C39.6839 20.1171 40 20.8801 40 21.6758V42.3424C40 43.1381 39.6839 43.9012 39.1213 44.4638C38.5587 45.0264 37.7956 45.3424 37 45.3424H27C26.2044 45.3424 25.4413 45.0264 24.8787 44.4638C24.3161 43.9012 24 43.1381 24 42.3424V21.6758C24 20.8801 24.3161 20.1171 24.8787 19.5545C25.4413 18.9919 26.2044 18.6758 27 18.6758H37ZM33.6667 40.0091H30.3333C30.0681 40.0091 29.8138 40.1145 29.6262 40.302C29.4387 40.4895 29.3333 40.7439 29.3333 41.0091C29.3333 41.2743 29.4387 41.5287 29.6262 41.7162C29.8138 41.9038 30.0681 42.0091 30.3333 42.0091H33.6667C33.9319 42.0091 34.1862 41.9038 34.3738 41.7162C34.5613 41.5287 34.6667 41.2743 34.6667 41.0091C34.6667 40.7439 34.5613 40.4895 34.3738 40.302C34.1862 40.1145 33.9319 40.0091 33.6667 40.0091Z" fill="#FDFFFF"/>
</svg>
