<svg width="20" height="20" viewBox="0 0 20 20" fill="none" xmlns="http://www.w3.org/2000/svg">
<path fill-rule="evenodd" clip-rule="evenodd" d="M7.63416 10.16L0.911987 5.83858L1.58793 4.78711L8.31009 9.10851C9.3395 9.77026 10.6604 9.77026 11.6898 9.10851L18.412 4.78711L19.0879 5.83858L12.3658 10.16C10.9246 11.0865 9.07531 11.0865 7.63416 10.16Z" fill="#00A5E2"/>
<path fill-rule="evenodd" clip-rule="evenodd" d="M0.625 5.625C0.625 3.89912 2.02411 2.5 3.75 2.5H16.25C17.9759 2.5 19.375 3.89912 19.375 5.625V14.375C19.375 16.1009 17.9759 17.5 16.25 17.5H3.75C2.02411 17.5 0.625 16.1009 0.625 14.375V5.625ZM3.75 3.75C2.71447 3.75 1.875 4.58947 1.875 5.625V14.375C1.875 15.4105 2.71447 16.25 3.75 16.25H16.25C17.2855 16.25 18.125 15.4105 18.125 14.375V5.625C18.125 4.58947 17.2855 3.75 16.25 3.75H3.75Z" fill="#00A5E2"/>
</svg>
