<svg width="1400" height="242" viewBox="0 0 1400 242" fill="none" xmlns="http://www.w3.org/2000/svg">
<rect width="1400" height="242" fill="url(#paint0_linear_42001_2758)"/>
<path opacity="0.04" d="M-588.037 134.764L-614.25 160.978L-695.277 79.9502L-776.306 160.979L-776.406 160.878L-857.533 242.006L-883.747 215.793L-883.74 215.786L-964.768 134.759L-938.555 108.546L-857.527 189.573L-776.51 108.557L-776.41 108.656L-695.283 27.5293L-695.278 27.5332L-695.273 27.5273L-588.037 134.764ZM-96.373 134.76L-122.586 160.974L-203.609 79.9502L-258.105 134.445L-257.781 134.77L-338.793 215.78L-338.79 215.783L-365.004 241.996L-365.006 241.994L-365.018 242.006L-391.231 215.792L-391.22 215.78L-472.24 134.76L-446.027 108.546L-365.006 189.567L-310.528 135.089L-310.852 134.766L-203.609 27.5234L-96.373 134.76ZM396.127 134.76L369.914 160.974L288.895 79.9541L207.869 160.979L207.771 160.881L126.646 242.006L100.433 215.792L100.44 215.785L19.4121 134.756L45.625 108.543L126.654 189.571L207.67 108.556L207.768 108.653L262.682 53.7412L262.678 53.7363L288.891 27.5234L396.127 134.76ZM-449.13 27.6631L-449.119 27.6533L-422.906 53.8662L-422.917 53.876L-342.033 134.76L-368.246 160.974L-449.13 80.0889L-584.812 215.772L-584.807 215.779L-611.02 241.992L-718.256 134.756L-692.043 108.542L-611.025 189.56L-475.343 53.876L-475.482 53.7363L-449.27 27.5234L-449.13 27.6631ZM42.5381 27.6553L42.541 27.6533L68.7539 53.8662L68.751 53.8682L149.643 134.76L123.43 160.974L42.5381 80.0811L-93.1523 215.772L-93.1465 215.779L-119.359 241.992L-226.596 134.756L-200.383 108.542L-119.365 189.56L16.3252 53.8682L16.1934 53.7363L42.4062 27.5234L42.5381 27.6553ZM888.432 134.76L862.219 160.974L781.195 79.9502L726.41 134.734L726.426 134.75L619.184 241.992L511.947 134.756L538.16 108.542L619.184 189.565L673.968 134.78L673.953 134.766L781.195 27.5234L888.432 134.76ZM1299.97 53.7275L1299.97 53.7344L1380.99 134.764L1354.78 160.977L1273.75 79.9482L1192.74 160.964L1192.62 160.852L1111.48 241.992L1004.25 134.756L1030.46 108.542L1111.48 189.565L1192.51 108.537L1192.62 108.648L1273.76 27.5137L1299.97 53.7275ZM2257.88 27.5312L2257.88 27.5293L2284.09 53.7422L2284.09 53.7441L2365.11 134.76L2338.89 160.974L2257.88 79.958L2176.86 160.979L2176.77 160.896L2095.68 241.992L1988.44 134.756L2014.66 108.542L2095.68 189.565L2176.71 108.537L2176.79 108.618L2231.67 53.7441L2231.66 53.7373L2257.87 27.5234L2257.88 27.5312ZM2695.38 134.75L2614.36 215.774L2614.36 215.779L2588.15 241.992L2480.91 134.756L2507.12 108.542L2588.14 189.562L2669.17 108.536L2695.38 134.75ZM1872.61 134.76L1846.39 160.974L1765.37 79.9482L1710.91 134.41L1711.24 134.746L1604.01 241.982L1604 241.98L1604 241.988L1496.76 134.752L1522.97 108.538L1604 189.563L1658.46 135.097L1658.13 134.762L1765.37 27.5254L1765.37 27.5273L1765.37 27.5234L1872.61 134.76ZM-941.626 27.6592L-941.611 27.6465L-915.398 53.8594L-915.412 53.873L-834.525 134.76L-860.738 160.974L-941.626 80.0859L-1103.52 241.984L-1210.76 134.748L-1184.55 108.534L-1103.52 189.558L-967.839 53.8721L-967.975 53.7363L-941.762 27.5234L-941.626 27.6592ZM535.042 27.6475L535.045 27.6465L561.258 53.8594L561.256 53.8613L642.154 134.76L615.941 160.974L535.042 80.0742L373.133 241.984L265.896 134.748L292.109 108.534L373.133 189.558L508.829 53.8604L508.705 53.7363L534.918 27.5234L535.042 27.6475ZM1027.37 27.6572L1027.38 27.6465L1053.59 53.8594L1053.58 53.8711L1134.47 134.76L1108.26 160.974L1027.37 80.084L865.469 241.984L758.232 134.748L784.445 108.534L865.469 189.558L1001.16 53.8701L1001.02 53.7363L1027.23 27.5234L1027.37 27.6572ZM1519.86 27.6611L1519.88 27.6465L1546.09 53.8594L1546.08 53.874L1626.96 134.76L1600.75 160.974L1519.86 80.0879L1384.18 215.769L1384.19 215.771L1357.97 241.984L1250.74 134.748L1276.95 108.534L1357.97 189.556L1493.65 53.874L1493.51 53.7363L1519.73 27.5234L1519.86 27.6611ZM2011.52 27.665L2011.54 27.6465L2037.76 53.8594L2037.74 53.8779L2118.62 134.76L2092.41 160.974L2011.52 80.0918L1875.85 215.767L1875.85 215.771L1849.64 241.984L1742.4 134.748L1768.62 108.534L1849.64 189.554L1985.31 53.8779L1985.17 53.7363L2011.38 27.5234L2011.52 27.665ZM2611.15 134.76L2584.94 160.974L2504.03 80.0645L2342.11 241.984L2234.87 134.748L2261.09 108.534L2342.11 189.558L2477.82 53.8506L2477.7 53.7363L2503.91 27.5234L2611.15 134.76ZM-942.118 188.234L-980.246 226.363L-1018.38 188.234L-980.246 150.105L-942.118 188.234ZM-696.388 188.234L-734.516 226.363L-772.645 188.234L-734.516 150.105L-696.388 188.234ZM-449.606 188.234L-487.734 226.363L-525.863 188.234L-487.734 150.105L-449.606 188.234ZM-203.497 188.234L-241.625 226.363L-279.754 188.234L-241.625 150.105L-203.497 188.234ZM42.0459 188.234L3.91797 226.363L-34.2109 188.234L3.91797 150.105L42.0459 188.234ZM287.69 188.234L249.562 226.363L211.434 188.234L249.562 150.105L287.69 188.234ZM534.546 188.234L496.418 226.363L458.289 188.234L496.418 150.105L534.546 188.234ZM780.562 188.234L742.434 226.363L704.305 188.234L742.434 150.105L780.562 188.234ZM1026.87 188.234L988.742 226.363L950.613 188.234L988.742 150.105L1026.87 188.234ZM1272.61 188.234L1234.48 226.363L1196.36 188.234L1234.48 150.105L1272.61 188.234ZM1519.37 188.234L1481.25 226.363L1443.12 188.234L1481.25 150.105L1519.37 188.234ZM1765.48 188.234L1727.36 226.363L1689.23 188.234L1727.36 150.105L1765.48 188.234ZM2011.04 188.234L1972.91 226.363L1934.78 188.234L1972.91 150.105L2011.04 188.234ZM2256.69 188.234L2218.56 226.363L2180.43 188.234L2218.56 150.105L2256.69 188.234ZM2503.54 188.234L2465.41 226.363L2427.28 188.234L2465.41 150.105L2503.54 188.234ZM-1080.53 134.76L-1106.74 160.974L-1187.76 79.9541L-1268.79 160.979L-1295 134.766L-1213.97 53.7412L-1213.98 53.7363L-1187.77 27.5234L-1080.53 134.76ZM-1004.83 59.5781L-1064.4 119.154L-1123.98 59.5781L-1064.4 0.00195312L-1004.83 59.5781ZM-757.966 59.5781L-817.541 119.154L-877.117 59.5781L-817.541 0.00195312L-757.966 59.5781ZM-512.317 59.5781L-571.893 119.154L-631.469 59.5781L-571.893 0.00195312L-512.317 59.5781ZM-265.935 59.5781L-325.51 119.154L-385.086 59.5781L-325.51 0.00195312L-265.935 59.5781ZM-20.6572 59.5781L-80.2324 119.154L-139.809 59.5781L-80.2324 0.00195312L-20.6572 59.5781ZM226.116 59.5781L166.541 119.154L106.965 59.5781L166.541 0.00195312L226.116 59.5781ZM471.835 59.5781L412.26 119.154L352.684 59.5781L412.26 0.00195312L471.835 59.5781ZM718.155 59.5781L658.58 119.154L599.004 59.5781L658.58 0.00195312L718.155 59.5781ZM964.163 59.5781L904.588 119.154L845.012 59.5781L904.588 0.00195312L964.163 59.5781ZM1211.02 59.5781L1151.44 119.154L1091.87 59.5781L1151.44 0.00195312L1211.02 59.5781ZM1456.67 59.5781L1397.09 119.154L1337.52 59.5781L1397.09 0.00195312L1456.67 59.5781ZM1703.07 59.5781L1643.49 119.154L1583.92 59.5781L1643.49 0.00195312L1703.07 59.5781ZM1948.32 59.5781L1888.75 119.154L1829.17 59.5781L1888.75 0.00195312L1948.32 59.5781ZM2195.1 59.5781L2135.52 119.154L2075.95 59.5781L2135.52 0.00195312L2195.1 59.5781ZM2440.83 59.5781L2381.26 119.154L2321.68 59.5781L2381.26 0.00195312L2440.83 59.5781Z" fill="#FDFFFF"/>
<defs>
<linearGradient id="paint0_linear_42001_2758" x1="700" y1="0" x2="700" y2="242" gradientUnits="userSpaceOnUse">
<stop stop-color="#02589F"/>
<stop offset="1" stop-color="#012039"/>
</linearGradient>
</defs>
</svg>
