<svg width="208" height="60" viewBox="0 0 208 60" fill="none" xmlns="http://www.w3.org/2000/svg">
<path d="M0 30C0 13.4315 13.4315 0 30 0H178C194.569 0 208 13.4315 208 30C208 46.5685 194.569 60 178 60H30C13.4315 60 0 46.5685 0 30Z" fill="#FDFFFF"/>
<path d="M61.1074 29.3095C61.074 25.6874 64.1492 23.9252 64.2899 23.8432C62.5482 21.3674 59.8487 21.0291 58.9001 21.0022C56.6328 20.7695 54.4336 22.3249 53.2786 22.3249C52.1006 22.3249 50.3221 21.0246 48.4052 21.0628C45.9386 21.0999 43.631 22.4924 42.3654 24.6546C39.7535 29.0634 41.7014 35.5423 44.2038 39.106C45.4556 40.8513 46.9183 42.8 48.8329 42.7314C50.7059 42.6561 51.4056 41.5671 53.6659 41.5671C55.9055 41.5671 56.5625 42.7314 58.5151 42.6876C60.5253 42.6561 61.7909 40.9344 62.9989 39.1734C64.4455 37.173 65.0264 35.2029 65.0495 35.1017C65.0022 35.086 61.1454 33.6509 61.1074 29.3095Z" fill="black"/>
<path d="M57.4189 18.6578C58.4263 17.4295 59.1156 15.7584 58.9243 14.0625C57.4662 14.1254 55.6427 15.0459 54.5926 16.2472C53.6636 17.3059 52.8337 19.0411 53.0481 20.6729C54.686 20.792 56.3677 19.8671 57.4189 18.6578Z" fill="black"/>
<path d="M82.917 18.3242C82.917 19.647 82.5101 20.6427 81.6975 21.3114C80.9448 21.9283 79.8751 22.2374 78.4897 22.2374C77.8027 22.2374 77.2148 22.2082 76.7227 22.1497V14.9224C77.3647 14.8212 78.0563 14.7695 78.8032 14.7695C80.123 14.7695 81.1177 15.0494 81.7885 15.609C82.5401 16.2418 82.917 17.1464 82.917 18.3242ZM81.6433 18.3568C81.6433 17.4993 81.4105 16.8419 80.9448 16.3834C80.4791 15.926 79.7991 15.6967 78.9035 15.6967C78.5231 15.6967 78.1992 15.7214 77.9306 15.7731V21.2675C78.0793 21.29 78.3513 21.3001 78.7467 21.3001C79.6711 21.3001 80.3846 21.0495 80.8872 20.5483C81.3897 20.047 81.6433 19.3166 81.6433 18.3568Z" fill="black"/>
<path d="M89.6694 19.4825C89.6694 20.2972 89.4308 20.9648 88.9536 21.4885C88.4534 22.0268 87.7906 22.2954 86.963 22.2954C86.1654 22.2954 85.5303 22.0381 85.0565 21.5211C84.584 21.0052 84.3477 20.3546 84.3477 19.5701C84.3477 18.7497 84.5909 18.0765 85.0796 17.554C85.5683 17.0314 86.2253 16.7695 87.0529 16.7695C87.8506 16.7695 88.4914 17.0269 88.9767 17.5427C89.4377 18.044 89.6694 18.6913 89.6694 19.4825ZM88.4165 19.5207C88.4165 19.0318 88.3082 18.6126 88.0926 18.2631C87.839 17.8405 87.4783 17.6293 87.0091 17.6293C86.5239 17.6293 86.155 17.8405 85.9014 18.2631C85.6847 18.6126 85.5775 19.0385 85.5775 19.542C85.5775 20.0309 85.6859 20.4501 85.9014 20.7996C86.1631 21.2221 86.5273 21.4334 86.9976 21.4334C87.4587 21.4334 87.8206 21.2188 88.0811 20.7884C88.3047 20.4321 88.4165 20.0095 88.4165 19.5207Z" fill="black"/>
<path d="M98.7241 16.875L97.024 22.1727H95.9174L95.2132 19.8723C95.0345 19.298 94.8893 18.7271 94.7763 18.1607H94.7544C94.6495 18.7428 94.5043 19.3126 94.3176 19.8723L93.5695 22.1727H92.4503L90.8516 16.875H92.093L92.7073 19.3935C92.856 19.9891 92.9782 20.5567 93.0762 21.0939H93.0981C93.188 20.6511 93.3367 20.0869 93.5464 19.4047L94.3176 16.8761H95.3019L96.0408 19.3508C96.2194 19.9543 96.3647 20.5353 96.4765 21.095H96.5099C96.5917 20.5499 96.7151 19.9689 96.8787 19.3508L97.5381 16.8761H98.7241V16.875Z" fill="black"/>
<path d="M104.989 22.1746H103.781V19.1403C103.781 18.2053 103.417 17.7377 102.686 17.7377C102.328 17.7377 102.039 17.8659 101.814 18.1232C101.591 18.3806 101.478 18.684 101.478 19.0313V22.1735H100.27V18.3907C100.27 17.9254 100.255 17.4208 100.227 16.8746H101.288L101.345 17.7029H101.378C101.519 17.4455 101.728 17.2331 102.004 17.0634C102.331 16.8656 102.698 16.7656 103.099 16.7656C103.606 16.7656 104.028 16.9252 104.363 17.2455C104.781 17.6377 104.989 18.2232 104.989 19.0009V22.1746Z" fill="black"/>
<path d="M108.32 22.1739H107.113V14.4453H108.32V22.1739Z" fill="black"/>
<path d="M115.431 19.4825C115.431 20.2972 115.193 20.9648 114.715 21.4885C114.215 22.0268 113.551 22.2954 112.725 22.2954C111.926 22.2954 111.291 22.0381 110.818 21.5211C110.346 21.0052 110.109 20.3546 110.109 19.5701C110.109 18.7497 110.353 18.0765 110.841 17.554C111.33 17.0314 111.987 16.7695 112.813 16.7695C113.612 16.7695 114.252 17.0269 114.738 17.5427C115.199 18.044 115.431 18.6913 115.431 19.4825ZM114.177 19.5207C114.177 19.0318 114.069 18.6126 113.853 18.2631C113.601 17.8405 113.239 17.6293 112.771 17.6293C112.284 17.6293 111.916 17.8405 111.663 18.2631C111.446 18.6126 111.339 19.0385 111.339 19.542C111.339 20.0309 111.448 20.4501 111.663 20.7996C111.925 21.2221 112.289 21.4334 112.759 21.4334C113.22 21.4334 113.581 21.2188 113.842 20.7884C114.066 20.4321 114.177 20.0095 114.177 19.5207Z" fill="black"/>
<path d="M121.277 22.1752H120.193L120.103 21.5649H120.069C119.698 22.0515 119.169 22.2954 118.482 22.2954C117.969 22.2954 117.554 22.1347 117.242 21.8155C116.958 21.5256 116.816 21.1648 116.816 20.7367C116.816 20.0893 117.093 19.596 117.65 19.2543C118.205 18.9127 118.987 18.7452 119.993 18.7531V18.6542C119.993 17.9563 119.617 17.6079 118.865 17.6079C118.329 17.6079 117.856 17.7394 117.448 18.0001L117.203 17.2269C117.707 16.9224 118.331 16.7695 119.066 16.7695C120.486 16.7695 121.199 17.5 121.199 18.961V20.912C121.199 21.4413 121.225 21.8627 121.277 22.1752ZM120.023 20.3546V19.5375C118.691 19.5151 118.024 19.8713 118.024 20.6052C118.024 20.8816 118.1 21.0884 118.256 21.2266C118.412 21.3649 118.61 21.4334 118.846 21.4334C119.111 21.4334 119.359 21.3514 119.585 21.1884C119.812 21.0244 119.952 20.8164 120.003 20.5613C120.016 20.504 120.023 20.4343 120.023 20.3546Z" fill="black"/>
<path d="M128.14 22.1739H127.068L127.012 21.3232H126.978C126.636 21.9705 126.053 22.2941 125.233 22.2941C124.578 22.2941 124.033 22.0435 123.601 21.5423C123.169 21.0411 122.953 20.3904 122.953 19.5913C122.953 18.7339 123.187 18.0393 123.657 17.5089C124.113 17.0144 124.671 16.7671 125.334 16.7671C126.064 16.7671 126.575 17.0065 126.865 17.4864H126.888V14.4453H128.097V20.7466C128.097 21.2625 128.111 21.7379 128.14 22.1739ZM126.888 19.9397V19.0564C126.888 18.9036 126.877 18.7799 126.855 18.6855C126.787 18.4023 126.64 18.1641 126.418 17.9719C126.193 17.7797 125.922 17.6831 125.61 17.6831C125.159 17.6831 124.807 17.8573 124.547 18.2068C124.29 18.5563 124.16 19.0024 124.16 19.5475C124.16 20.0712 124.283 20.496 124.531 20.8231C124.793 21.1714 125.145 21.3456 125.587 21.3456C125.983 21.3456 126.3 21.2007 126.541 20.9096C126.774 20.641 126.888 20.3173 126.888 19.9397Z" fill="black"/>
<path d="M138.474 19.4825C138.474 20.2972 138.236 20.9648 137.758 21.4885C137.258 22.0268 136.596 22.2954 135.768 22.2954C134.971 22.2954 134.336 22.0381 133.861 21.5211C133.389 21.0052 133.152 20.3546 133.152 19.5701C133.152 18.7497 133.396 18.0765 133.884 17.554C134.373 17.0314 135.03 16.7695 135.859 16.7695C136.655 16.7695 137.297 17.0269 137.781 17.5427C138.242 18.044 138.474 18.6913 138.474 19.4825ZM137.222 19.5207C137.222 19.0318 137.114 18.6126 136.898 18.2631C136.644 17.8405 136.284 17.6293 135.814 17.6293C135.33 17.6293 134.961 17.8405 134.706 18.2631C134.489 18.6126 134.382 19.0385 134.382 19.542C134.382 20.0309 134.491 20.4501 134.706 20.7996C134.968 21.2221 135.332 21.4334 135.802 21.4334C136.263 21.4334 136.626 21.2188 136.887 20.7884C137.109 20.4321 137.222 20.0095 137.222 19.5207Z" fill="black"/>
<path d="M144.969 22.1746H143.762V19.1403C143.762 18.2053 143.398 17.7377 142.666 17.7377C142.307 17.7377 142.018 17.8659 141.794 18.1232C141.571 18.3806 141.459 18.684 141.459 19.0313V22.1735H140.25V18.3907C140.25 17.9254 140.236 17.4208 140.207 16.8746H141.267L141.324 17.7029H141.357C141.499 17.4455 141.709 17.2331 141.983 17.0634C142.312 16.8656 142.677 16.7656 143.079 16.7656C143.585 16.7656 144.007 16.9252 144.343 17.2455C144.761 17.6377 144.969 18.2232 144.969 19.0009V22.1746Z" fill="black"/>
<path d="M153.098 17.7602H151.768V20.3338C151.768 20.9878 152.004 21.3149 152.472 21.3149C152.689 21.3149 152.869 21.2969 153.011 21.2598L153.042 22.1532C152.803 22.2409 152.49 22.2847 152.104 22.2847C151.626 22.2847 151.255 22.1431 150.987 21.8599C150.717 21.5767 150.583 21.1002 150.583 20.4315V17.7602H149.789V16.878H150.583V15.907L151.767 15.5586V16.8768H153.097V17.7602H153.098Z" fill="black"/>
<path d="M159.492 22.1739H158.283V19.162C158.283 18.2124 157.919 17.737 157.189 17.737C156.629 17.737 156.247 18.0124 156.037 18.563C156.001 18.6788 155.98 18.8204 155.98 18.9867V22.1728H154.773V14.4453H155.98V17.6381H156.003C156.384 17.0571 156.929 16.7671 157.635 16.7671C158.136 16.7671 158.55 16.9267 158.878 17.247C159.287 17.646 159.492 18.2394 159.492 19.0238V22.1739Z" fill="black"/>
<path d="M166.089 19.2741C166.089 19.4853 166.072 19.6629 166.044 19.8079H162.421C162.437 20.3316 162.61 20.7306 162.945 21.007C163.252 21.2543 163.647 21.3779 164.131 21.3779C164.667 21.3779 165.156 21.2947 165.596 21.1273L165.785 21.9454C165.27 22.1634 164.664 22.2725 163.962 22.2725C163.12 22.2725 162.458 22.0308 161.978 21.5476C161.496 21.0643 161.258 20.4159 161.258 19.6022C161.258 18.8032 161.48 18.1379 161.929 17.6074C162.397 17.041 163.029 16.7578 163.828 16.7578C164.61 16.7578 165.203 17.041 165.604 17.6074C165.928 18.057 166.089 18.6133 166.089 19.2741ZM164.936 18.9695C164.945 18.62 164.866 18.3188 164.702 18.0648C164.492 17.7378 164.173 17.5737 163.741 17.5737C163.346 17.5737 163.025 17.7333 162.779 18.0536C162.579 18.3087 162.46 18.6133 162.421 18.9695H164.936Z" fill="black"/>
<path d="M88.2156 42.4794H85.598L84.1641 38.0863H79.18L77.8141 42.4794H75.2656L80.2036 27.5234H83.2535L88.2156 42.4794ZM83.7318 36.2432L82.4351 32.3379C82.2979 31.939 82.0409 30.9994 81.6617 29.5205H81.6156C81.4646 30.1566 81.2214 31.0961 80.8871 32.3379L79.6134 36.2432H83.7318Z" fill="black"/>
<path d="M100.913 36.9536C100.913 38.7877 100.405 40.2374 99.3884 41.3017C98.4778 42.2491 97.347 42.7222 95.9973 42.7222C94.5403 42.7222 93.4937 42.212 92.8563 41.1915H92.8102V46.8725H90.3528V35.2442C90.3528 34.0912 90.3217 32.9078 90.2617 31.6941H92.4229L92.5601 33.4034H92.6062C93.4257 32.1155 94.6694 31.4727 96.3385 31.4727C97.6433 31.4727 98.7325 31.975 99.6039 32.9808C100.478 33.9878 100.913 35.3117 100.913 36.9536ZM98.4098 37.0412C98.4098 35.9916 98.1677 35.1262 97.6813 34.4452C97.1499 33.7349 96.4365 33.3798 95.542 33.3798C94.9357 33.3798 94.3847 33.5776 93.8926 33.9676C93.3992 34.3609 93.0765 34.8745 92.9255 35.5106C92.8494 35.8073 92.8114 36.05 92.8114 36.2411V38.0392C92.8114 38.8236 93.058 39.4856 93.5514 40.0261C94.0447 40.5667 94.6856 40.8364 95.474 40.8364C96.3996 40.8364 97.12 40.488 97.6352 39.7935C98.1516 39.0978 98.4098 38.1808 98.4098 37.0412Z" fill="black"/>
<path d="M113.635 36.9536C113.635 38.7877 113.127 40.2374 112.109 41.3017C111.199 42.2491 110.069 42.7222 108.719 42.7222C107.262 42.7222 106.215 42.212 105.579 41.1915H105.533V46.8725H103.075V35.2442C103.075 34.0912 103.044 32.9078 102.984 31.6941H105.146L105.283 33.4034H105.329C106.147 32.1155 107.391 31.4727 109.061 31.4727C110.365 31.4727 111.454 31.975 112.328 32.9808C113.198 33.9878 113.635 35.3117 113.635 36.9536ZM111.131 37.0412C111.131 35.9916 110.888 35.1262 110.402 34.4452C109.87 33.7349 109.159 33.3798 108.264 33.3798C107.656 33.3798 107.106 33.5776 106.613 33.9676C106.12 34.3609 105.798 34.8745 105.647 35.5106C105.572 35.8073 105.533 36.05 105.533 36.2411V38.0392C105.533 38.8236 105.78 39.4856 106.271 40.0261C106.764 40.5656 107.405 40.8364 108.195 40.8364C109.121 40.8364 109.841 40.488 110.357 39.7935C110.873 39.0978 111.131 38.1808 111.131 37.0412Z" fill="black"/>
<path d="M127.86 38.2856C127.86 39.5578 127.407 40.5929 126.498 41.3919C125.498 42.2651 124.107 42.7012 122.319 42.7012C120.669 42.7012 119.345 42.391 118.344 41.7695L118.913 39.7725C119.992 40.4086 121.176 40.7277 122.466 40.7277C123.391 40.7277 124.112 40.5232 124.629 40.1164C125.144 39.7095 125.401 39.1634 125.401 38.4823C125.401 37.8754 125.189 37.3641 124.764 36.9494C124.341 36.5347 123.634 36.1492 122.648 35.793C119.962 34.8164 118.62 33.3857 118.62 31.5044C118.62 30.275 119.091 29.2669 120.032 28.4825C120.971 27.6969 122.222 27.3047 123.788 27.3047C125.184 27.3047 126.343 27.5418 127.269 28.0149L126.654 29.9682C125.79 29.5096 124.812 29.2804 123.719 29.2804C122.854 29.2804 122.179 29.4883 121.694 29.9019C121.285 30.2716 121.08 30.7223 121.08 31.2561C121.08 31.8472 121.314 32.3361 121.784 32.7204C122.194 33.0756 122.937 33.4599 124.016 33.8746C125.336 34.3927 126.305 34.9984 126.929 35.693C127.55 36.3852 127.86 37.2517 127.86 38.2856Z" fill="black"/>
<path d="M135.986 33.493H133.277V38.729C133.277 40.0607 133.755 40.726 134.711 40.726C135.15 40.726 135.515 40.6889 135.803 40.6147L135.871 42.4342C135.387 42.6107 134.749 42.6994 133.96 42.6994C132.989 42.6994 132.231 42.4106 131.683 41.8341C131.138 41.2564 130.864 40.2877 130.864 38.9267V33.4908H129.25V31.6926H130.864V29.7181L133.277 29.0078V31.6926H135.986V33.493Z" fill="black"/>
<path d="M148.205 37.0002C148.205 38.6578 147.718 40.0188 146.748 41.0831C145.73 42.1788 144.379 42.725 142.695 42.725C141.072 42.725 139.78 42.2002 138.817 41.1505C137.853 40.1008 137.371 38.7758 137.371 37.1789C137.371 35.5077 137.867 34.1389 138.861 33.0747C139.854 32.0093 141.193 31.4766 142.877 31.4766C144.5 31.4766 145.806 32.0014 146.792 33.0522C147.735 34.0715 148.205 35.3875 148.205 37.0002ZM145.655 37.0777C145.655 36.0831 145.437 35.2302 144.996 34.5188C144.481 33.6579 143.744 33.2286 142.79 33.2286C141.802 33.2286 141.051 33.659 140.536 34.5188C140.095 35.2313 139.877 36.0978 139.877 37.1227C139.877 38.1173 140.095 38.9703 140.536 39.6805C141.068 40.5414 141.81 40.9707 142.768 40.9707C143.706 40.9707 144.443 40.5324 144.974 39.6581C145.427 38.9332 145.655 38.0712 145.655 37.0777Z" fill="black"/>
<path d="M156.195 33.8012C155.952 33.7574 155.692 33.7349 155.42 33.7349C154.556 33.7349 153.887 34.053 153.417 34.6902C153.008 35.2521 152.803 35.9624 152.803 36.8198V42.4783H150.347L150.37 35.0903C150.37 33.8473 150.338 32.7156 150.277 31.6952H152.418L152.508 33.7585H152.576C152.835 33.0494 153.244 32.4785 153.804 32.0503C154.352 31.6648 154.943 31.4727 155.581 31.4727C155.808 31.4727 156.013 31.4884 156.195 31.5165V33.8012Z" fill="black"/>
<path d="M167.185 36.5767C167.185 37.006 167.156 37.3678 167.095 37.6634H159.723C159.752 38.7288 160.108 39.5436 160.793 40.1055C161.414 40.6079 162.217 40.8596 163.204 40.8596C164.296 40.8596 165.291 40.6899 166.187 40.3494L166.572 42.0126C165.525 42.4577 164.29 42.6791 162.864 42.6791C161.149 42.6791 159.803 42.1868 158.823 41.2035C157.845 40.2201 157.355 38.8996 157.355 37.2431C157.355 35.6169 157.811 34.2627 158.723 33.1827C159.677 32.0296 160.967 31.4531 162.59 31.4531C164.184 31.4531 165.391 32.0296 166.21 33.1827C166.859 34.0986 167.185 35.2314 167.185 36.5767ZM164.842 35.9552C164.858 35.2449 164.698 34.6313 164.365 34.1132C163.939 33.4468 163.286 33.1141 162.406 33.1141C161.603 33.1141 160.949 33.4389 160.45 34.0908C160.041 34.6088 159.798 35.2303 159.723 35.9541H164.842V35.9552Z" fill="black"/>
</svg>
