<svg width="201" height="57" viewBox="0 0 201 57" fill="none" xmlns="http://www.w3.org/2000/svg">
<rect x="0.704102" width="200.296" height="56.872" rx="28.436" fill="#202020"/>
<path d="M59.548 27.7816C59.5158 24.3483 62.4772 22.678 62.6126 22.6002C60.9354 20.2535 58.3359 19.9328 57.4224 19.9073C55.2391 19.6868 53.1213 21.1611 52.0092 21.1611C50.8748 21.1611 49.1621 19.9286 47.3163 19.9648C44.9409 20 42.7188 21.3198 41.5001 23.3693C38.9849 27.5483 40.8607 33.6894 43.2705 37.0673C44.4759 38.7216 45.8844 40.5687 47.7281 40.5038C49.5317 40.4324 50.2055 39.4002 52.3821 39.4002C54.5387 39.4002 55.1714 40.5038 57.0517 40.4622C58.9874 40.4324 60.2062 38.8004 61.3694 37.1312C62.7624 35.2351 63.3218 33.3677 63.344 33.2718C63.2985 33.2569 59.5846 31.8966 59.548 27.7816Z" fill="white"/>
<path d="M55.9961 17.6852C56.9662 16.5209 57.63 14.9369 57.4457 13.3294C56.0416 13.3891 54.2857 14.2615 53.2745 15.4002C52.3799 16.4037 51.5807 18.0484 51.7872 19.5952C53.3644 19.7081 54.9838 18.8314 55.9961 17.6852Z" fill="white"/>
<path d="M80.5508 17.3688C80.5508 18.6225 80.159 19.5663 79.3765 20.2002C78.6517 20.785 77.6217 21.0779 76.2875 21.0779C75.626 21.0779 75.0599 21.0502 74.5859 20.9948V14.1443C75.2042 14.0484 75.8702 13.9994 76.5894 13.9994C77.8603 13.9994 78.8182 14.2646 79.4642 14.7951C80.1879 15.3949 80.5508 16.2524 80.5508 17.3688ZM79.3243 17.3996C79.3243 16.5869 79.1001 15.9637 78.6517 15.5291C78.2033 15.0955 77.5484 14.8782 76.686 14.8782C76.3197 14.8782 76.0078 14.9017 75.7492 14.9507V20.1586C75.8924 20.1799 76.1543 20.1895 76.535 20.1895C77.4252 20.1895 78.1123 19.952 78.5962 19.4769C79.0802 19.0018 79.3243 18.3094 79.3243 17.3996Z" fill="white"/>
<path d="M87.0544 18.4638C87.0544 19.2361 86.8246 19.8689 86.3651 20.3653C85.8834 20.8755 85.2451 21.1301 84.4482 21.1301C83.6801 21.1301 83.0685 20.8862 82.6123 20.3962C82.1572 19.9072 81.9297 19.2905 81.9297 18.5469C81.9297 17.7693 82.1639 17.1312 82.6345 16.6359C83.1051 16.1405 83.7378 15.8923 84.5348 15.8923C85.3028 15.8923 85.92 16.1363 86.3873 16.6252C86.8313 17.1003 87.0544 17.7139 87.0544 18.4638ZM85.8478 18.5C85.8478 18.0367 85.7435 17.6393 85.5359 17.308C85.2917 16.9075 84.9443 16.7072 84.4926 16.7072C84.0253 16.7072 83.6701 16.9075 83.4259 17.308C83.2172 17.6393 83.114 18.0431 83.114 18.5203C83.114 18.9837 83.2183 19.381 83.4259 19.7123C83.6779 20.1128 84.0286 20.3131 84.4815 20.3131C84.9255 20.3131 85.274 20.1096 85.5248 19.7016C85.7402 19.364 85.8478 18.9634 85.8478 18.5Z" fill="white"/>
<path d="M95.7744 15.9946L94.1372 21.0162H93.0716L92.3934 18.8356C92.2214 18.2913 92.0815 17.7501 91.9728 17.2133H91.9517C91.8507 17.7651 91.7108 18.3051 91.531 18.8356L90.8106 21.0162H89.7329L88.1934 15.9946H89.3888L89.9804 18.3818C90.1236 18.9464 90.2412 19.4844 90.3356 19.9935H90.3567C90.4432 19.5738 90.5864 19.0391 90.7884 18.3925L91.531 15.9957H92.4789L93.1904 18.3414C93.3624 18.9134 93.5023 19.4641 93.6099 19.9946H93.6421C93.7209 19.478 93.8397 18.9272 93.9973 18.3414L94.6322 15.9957H95.7744V15.9946Z" fill="white"/>
<path d="M101.804 21.0162H100.641V18.14C100.641 17.2537 100.29 16.8106 99.5864 16.8106C99.2412 16.8106 98.9626 16.932 98.7462 17.176C98.532 17.4199 98.4232 17.7075 98.4232 18.0367V21.0151H97.2599V17.4295C97.2599 16.9885 97.2455 16.5102 97.2178 15.9925H98.24L98.2944 16.7776H98.3266C98.462 16.5336 98.664 16.3323 98.9293 16.1714C99.2445 15.984 99.5975 15.8892 99.9838 15.8892C100.472 15.8892 100.878 16.0404 101.201 16.344C101.603 16.7158 101.804 17.2708 101.804 18.0079V21.0162Z" fill="white"/>
<path d="M105.012 21.0162H103.85V13.6905H105.012V21.0162Z" fill="white"/>
<path d="M111.86 18.4638C111.86 19.2361 111.63 19.8689 111.171 20.3653C110.689 20.8755 110.05 21.1301 109.254 21.1301C108.485 21.1301 107.873 20.8862 107.418 20.3962C106.963 19.9072 106.735 19.2905 106.735 18.5469C106.735 17.7693 106.97 17.1312 107.44 16.6359C107.911 16.1405 108.543 15.8923 109.339 15.8923C110.109 15.8923 110.725 16.1363 111.193 16.6252C111.637 17.1003 111.86 17.7139 111.86 18.4638ZM110.652 18.5C110.652 18.0367 110.548 17.6393 110.34 17.308C110.097 16.9075 109.749 16.7072 109.298 16.7072C108.83 16.7072 108.475 16.9075 108.232 17.308C108.023 17.6393 107.92 18.0431 107.92 18.5203C107.92 18.9837 108.024 19.381 108.232 19.7123C108.484 20.1128 108.834 20.3131 109.287 20.3131C109.731 20.3131 110.079 20.1096 110.329 19.7016C110.546 19.364 110.652 18.9634 110.652 18.5Z" fill="white"/>
<path d="M117.49 21.0162H116.445L116.359 20.4377H116.327C115.969 20.899 115.46 21.1301 114.798 21.1301C114.304 21.1301 113.905 20.9778 113.604 20.6753C113.331 20.4004 113.194 20.0585 113.194 19.6526C113.194 19.0391 113.461 18.5714 113.997 18.2476C114.532 17.9238 115.284 17.765 116.253 17.7725V17.6787C116.253 17.0172 115.892 16.687 115.167 16.687C114.651 16.687 114.196 16.8116 113.803 17.0588L113.566 16.3259C114.052 16.0372 114.653 15.8923 115.361 15.8923C116.728 15.8923 117.414 16.5847 117.414 17.9696V19.8188C117.414 20.3205 117.44 20.72 117.49 21.0162ZM116.282 19.2905V18.516C114.999 18.4947 114.358 18.8324 114.358 19.528C114.358 19.7901 114.431 19.9861 114.581 20.1171C114.731 20.2481 114.921 20.3131 115.149 20.3131C115.404 20.3131 115.643 20.2353 115.86 20.0809C116.079 19.9253 116.213 19.7283 116.263 19.4865C116.276 19.4321 116.282 19.3661 116.282 19.2905Z" fill="white"/>
<path d="M124.1 21.0162H123.068L123.014 20.2098H122.981C122.652 20.8234 122.09 21.1301 121.301 21.1301C120.671 21.1301 120.145 20.8926 119.729 20.4175C119.313 19.9424 119.105 19.3256 119.105 18.5682C119.105 17.7555 119.331 17.0971 119.784 16.5943C120.222 16.1256 120.759 15.8913 121.399 15.8913C122.101 15.8913 122.593 16.1182 122.873 16.573H122.895V13.6905H124.059V19.6633C124.059 20.1523 124.073 20.6029 124.1 21.0162ZM122.895 18.8985V18.0612C122.895 17.9163 122.884 17.7991 122.863 17.7097C122.797 17.4412 122.656 17.2154 122.442 17.0332C122.226 16.8511 121.965 16.7595 121.664 16.7595C121.23 16.7595 120.89 16.9246 120.641 17.2559C120.393 17.5871 120.268 18.0101 120.268 18.5267C120.268 19.0231 120.386 19.4258 120.625 19.7357C120.877 20.066 121.217 20.2311 121.642 20.2311C122.024 20.2311 122.329 20.0937 122.561 19.8178C122.785 19.5632 122.895 19.2564 122.895 18.8985Z" fill="white"/>
<path d="M134.048 18.4638C134.048 19.2361 133.819 19.8689 133.359 20.3653C132.877 20.8755 132.24 21.1301 131.442 21.1301C130.675 21.1301 130.064 20.8862 129.606 20.3962C129.151 19.9072 128.924 19.2905 128.924 18.5469C128.924 17.7693 129.158 17.1312 129.629 16.6359C130.099 16.1405 130.732 15.8923 131.53 15.8923C132.297 15.8923 132.915 16.1363 133.381 16.6252C133.825 17.1003 134.048 17.7139 134.048 18.4638ZM132.843 18.5C132.843 18.0367 132.739 17.6393 132.531 17.308C132.286 16.9075 131.94 16.7072 131.487 16.7072C131.021 16.7072 130.665 16.9075 130.42 17.308C130.211 17.6393 130.108 18.0431 130.108 18.5203C130.108 18.9837 130.212 19.381 130.42 19.7123C130.672 20.1128 131.023 20.3131 131.476 20.3131C131.92 20.3131 132.269 20.1096 132.52 19.7016C132.734 19.364 132.843 18.9634 132.843 18.5Z" fill="white"/>
<path d="M140.303 21.0162H139.141V18.14C139.141 17.2537 138.79 16.8106 138.085 16.8106C137.74 16.8106 137.462 16.932 137.246 17.176C137.031 17.4199 136.923 17.7075 136.923 18.0367V21.0151H135.759V17.4295C135.759 16.9885 135.746 16.5102 135.718 15.9925H136.739L136.793 16.7776H136.826C136.962 16.5336 137.164 16.3323 137.428 16.1714C137.745 15.984 138.096 15.8892 138.484 15.8892C138.971 15.8892 139.377 16.0404 139.7 16.344C140.103 16.7158 140.303 17.2708 140.303 18.0079V21.0162Z" fill="white"/>
<path d="M148.132 16.8308H146.851V19.2702C146.851 19.8902 147.079 20.2002 147.529 20.2002C147.738 20.2002 147.911 20.1831 148.048 20.148L148.078 20.9949C147.848 21.078 147.546 21.1195 147.174 21.1195C146.715 21.1195 146.357 20.9853 146.099 20.7168C145.839 20.4484 145.71 19.9967 145.71 19.3629V16.8308H144.945V15.9946H145.71V15.0742L146.85 14.744V15.9935H148.131V16.8308H148.132Z" fill="white"/>
<path d="M154.289 21.0162H153.125V18.1613C153.125 17.2612 152.774 16.8106 152.072 16.8106C151.532 16.8106 151.164 17.0716 150.962 17.5935C150.927 17.7033 150.907 17.8375 150.907 17.9951V21.0151H149.745V13.6905H150.907V16.7168H150.929C151.296 16.1661 151.821 15.8913 152.501 15.8913C152.983 15.8913 153.381 16.0425 153.698 16.3461C154.092 16.7243 154.289 17.2868 154.289 18.0303V21.0162Z" fill="white"/>
<path d="M160.642 18.2678C160.642 18.4681 160.627 18.6364 160.599 18.7738H157.11C157.126 19.2702 157.292 19.6484 157.615 19.9104C157.91 20.1448 158.291 20.262 158.757 20.262C159.273 20.262 159.744 20.1831 160.168 20.0244L160.35 20.7999C159.854 21.0066 159.27 21.1099 158.594 21.1099C157.784 21.1099 157.146 20.8809 156.684 20.4228C156.22 19.9648 155.99 19.3501 155.99 18.5789C155.99 17.8215 156.204 17.1909 156.636 16.6881C157.087 16.1512 157.696 15.8828 158.465 15.8828C159.218 15.8828 159.79 16.1512 160.176 16.6881C160.488 17.1142 160.642 17.6415 160.642 18.2678ZM159.532 17.9791C159.541 17.6479 159.464 17.3624 159.307 17.1216C159.105 16.8116 158.797 16.6561 158.381 16.6561C158.001 16.6561 157.692 16.8074 157.455 17.111C157.262 17.3528 157.148 17.6415 157.11 17.9791H159.532Z" fill="white"/>
<path d="M85.651 40.2662H83.1303L81.7495 36.1021H76.9501L75.6348 40.2662H73.1807L77.9357 26.0899H80.8727L85.651 40.2662ZM81.3333 34.3551L80.0846 30.6534C79.9525 30.2752 79.705 29.3847 79.3398 27.9828H79.2954C79.15 28.5858 78.9158 29.4763 78.5939 30.6534L77.3674 34.3551H81.3333Z" fill="white"/>
<path d="M97.8792 35.0294C97.8792 36.7679 97.3897 38.1421 96.4107 39.1508C95.5338 40.0488 94.445 40.4973 93.1452 40.4973C91.7422 40.4973 90.7344 40.0137 90.1206 39.0464H90.0762V44.4312H87.7098V33.4092C87.7098 32.3162 87.6798 31.1945 87.6221 30.0441H89.7032L89.8353 31.6643H89.8797C90.6689 30.4435 91.8665 29.8342 93.4738 29.8342C94.7302 29.8342 95.7791 30.3104 96.6183 31.2638C97.4596 32.2182 97.8792 33.4731 97.8792 35.0294ZM95.4684 35.1125C95.4684 34.1176 95.2353 33.2973 94.7669 32.6518C94.2552 31.9786 93.5681 31.6419 92.7068 31.6419C92.1229 31.6419 91.5924 31.8294 91.1184 32.1991C90.6434 32.5719 90.3326 33.0587 90.1872 33.6616C90.1139 33.9429 90.0773 34.173 90.0773 34.3541V36.0584C90.0773 36.802 90.3148 37.4294 90.7899 37.9418C91.2649 38.4542 91.8821 38.7098 92.6413 38.7098C93.5326 38.7098 94.2263 38.3796 94.7225 37.7213C95.2197 37.0619 95.4684 36.1927 95.4684 35.1125Z" fill="white"/>
<path d="M110.13 35.0294C110.13 36.7679 109.641 38.1421 108.66 39.1508C107.785 40.0488 106.696 40.4973 105.396 40.4973C103.993 40.4973 102.985 40.0137 102.373 39.0464H102.328V44.4312H99.9617V33.4092C99.9617 32.3162 99.9317 31.1945 99.874 30.0441H101.955L102.087 31.6643H102.132C102.92 30.4435 104.117 29.8342 105.726 29.8342C106.981 29.8342 108.03 30.3104 108.871 31.2638C109.709 32.2182 110.13 33.4731 110.13 35.0294ZM107.719 35.1125C107.719 34.1176 107.485 33.2973 107.017 32.6518C106.505 31.9786 105.82 31.6419 104.958 31.6419C104.373 31.6419 103.843 31.8294 103.368 32.1991C102.893 32.5719 102.583 33.0587 102.438 33.6616C102.366 33.9429 102.328 34.173 102.328 34.3541V36.0584C102.328 36.802 102.566 37.4294 103.039 37.9418C103.514 38.4531 104.131 38.7098 104.892 38.7098C105.783 38.7098 106.477 38.3796 106.973 37.7213C107.471 37.0619 107.719 36.1927 107.719 35.1125Z" fill="white"/>
<path d="M123.827 36.2907C123.827 37.4965 123.391 38.4776 122.515 39.235C121.553 40.0627 120.213 40.476 118.491 40.476C116.902 40.476 115.628 40.182 114.663 39.5929L115.211 37.7C116.25 38.3029 117.39 38.6055 118.632 38.6055C119.524 38.6055 120.217 38.4116 120.716 38.026C121.212 37.6404 121.459 37.1226 121.459 36.4771C121.459 35.9019 121.255 35.4172 120.846 35.0241C120.438 34.631 119.758 34.2657 118.808 33.928C116.221 33.0023 114.929 31.6462 114.929 29.863C114.929 28.6976 115.382 27.7421 116.289 26.9986C117.193 26.254 118.398 25.8822 119.905 25.8822C121.25 25.8822 122.366 26.107 123.257 26.5554L122.666 28.4068C121.833 27.9722 120.892 27.7549 119.839 27.7549C119.006 27.7549 118.356 27.952 117.89 28.344C117.496 28.6944 117.298 29.1216 117.298 29.6276C117.298 30.1879 117.523 30.6513 117.976 31.0156C118.37 31.3522 119.086 31.7165 120.125 32.1096C121.396 32.6007 122.33 33.1749 122.93 33.8332C123.528 34.4894 123.827 35.3107 123.827 36.2907Z" fill="white"/>
<path d="M131.651 31.7485H129.042V36.7114C129.042 37.9737 129.502 38.6044 130.423 38.6044C130.846 38.6044 131.197 38.5692 131.474 38.4989L131.54 40.2235C131.073 40.3908 130.46 40.4749 129.699 40.4749C128.765 40.4749 128.034 40.2012 127.507 39.6547C126.982 39.1072 126.718 38.1889 126.718 36.8989V31.7463H125.164V30.0419H126.718V28.1703L129.042 27.4971V30.0419H131.651V31.7485Z" fill="white"/>
<path d="M143.42 35.071C143.42 36.6422 142.951 37.9322 142.017 38.941C141.037 39.9796 139.736 40.4973 138.114 40.4973C136.551 40.4973 135.307 39.9999 134.379 39.0049C133.451 38.01 132.987 36.7541 132.987 35.2404C132.987 33.6564 133.465 32.3589 134.422 31.3501C135.378 30.3403 136.668 29.8353 138.29 29.8353C139.852 29.8353 141.11 30.3328 142.059 31.3288C142.967 32.295 143.42 33.5424 143.42 35.071ZM140.965 35.1445C140.965 34.2018 140.755 33.3932 140.33 32.7189C139.834 31.903 139.124 31.496 138.205 31.496C137.254 31.496 136.531 31.904 136.035 32.7189C135.61 33.3943 135.4 34.2156 135.4 35.1871C135.4 36.1298 135.61 36.9384 136.035 37.6116C136.547 38.4276 137.262 38.8345 138.184 38.8345C139.088 38.8345 139.797 38.4191 140.309 37.5903C140.745 36.9032 140.965 36.0862 140.965 35.1445Z" fill="white"/>
<path d="M151.112 32.0414C150.877 31.9999 150.628 31.9786 150.366 31.9786C149.533 31.9786 148.889 32.28 148.437 32.884C148.043 33.4166 147.845 34.0899 147.845 34.9027V40.2662H145.48L145.502 33.2632C145.502 32.0851 145.472 31.0124 145.413 30.0451H147.474L147.561 32.0009H147.626C147.876 31.3288 148.27 30.7876 148.81 30.3818C149.337 30.0164 149.906 29.8342 150.52 29.8342C150.739 29.8342 150.936 29.8491 151.112 29.8758V32.0414Z" fill="white"/>
<path d="M161.695 34.6715C161.695 35.0784 161.667 35.4214 161.609 35.7016H154.509C154.537 36.7114 154.88 37.4837 155.539 38.0164C156.138 38.4925 156.911 38.7311 157.861 38.7311C158.913 38.7311 159.872 38.5703 160.734 38.2475L161.105 39.8241C160.097 40.2459 158.907 40.4558 157.534 40.4558C155.882 40.4558 154.586 39.9892 153.642 39.0571C152.701 38.125 152.229 36.8734 152.229 35.3032C152.229 33.7618 152.668 32.4782 153.546 31.4545C154.465 30.3615 155.707 29.8151 157.27 29.8151C158.805 29.8151 159.967 30.3615 160.756 31.4545C161.381 32.3226 161.695 33.3964 161.695 34.6715ZM159.439 34.0824C159.454 33.4092 159.3 32.8276 158.979 32.3365C158.57 31.7048 157.94 31.3895 157.093 31.3895C156.32 31.3895 155.69 31.6973 155.21 32.3152C154.816 32.8063 154.581 33.3953 154.509 34.0814H159.439V34.0824Z" fill="white"/>
</svg>
