<svg width="172" height="172" viewBox="0 0 172 172" fill="none" xmlns="http://www.w3.org/2000/svg">
<path d="M0 86C0 38.5035 38.5035 0 86 0C133.496 0 172 38.5035 172 86C172 133.496 133.496 172 86 172C38.5035 172 0 133.496 0 86Z" fill="#FDFFFF"/>
<path d="M16.57 99.9383C16.541 99.7582 16.5119 99.5716 16.4894 99.3887C15.8825 94.9717 15.815 90.5003 16.4284 86.0823C16.6282 84.6528 16.8908 83.227 17.2257 81.8135C18.2856 77.4087 20.2901 73.1399 23.0947 69.5323C24.7681 67.3731 26.7313 65.4492 28.9506 63.8715C35.7586 59.0174 43.0505 60.6683 50.9147 59.477C56.4976 58.6253 62.0618 57.3891 67.3146 55.2617C72.5673 53.139 77.4308 50.1159 81.4717 46.1191C86.1138 41.522 87.8229 35.8462 91.4951 30.7857C92.6582 29.1827 94.5145 27.468 97.1709 26.0479C98.4982 25.2065 99.9277 24.4964 101.431 23.9721C102.944 23.4421 104.541 23.0951 106.231 22.9769C114.12 22.4047 122.116 25.9259 128.153 31.0268C134.6 36.4821 139.577 43.1541 143.007 50.4976C145.207 55.1951 146.765 60.1515 147.691 65.2495C149.606 75.8929 148.716 87.0878 144.867 97.5164C133.765 127.601 102.983 153.089 69.8359 150.936C69.5282 150.914 69.2262 150.891 68.9176 150.863C68.7309 150.856 68.5387 150.837 68.3492 150.818C67.369 150.731 66.386 150.613 65.4123 150.467C62.8619 150.085 60.3462 149.52 57.8952 148.752C55.9677 148.142 54.0851 147.412 52.2541 146.561C50.1408 145.572 48.0848 144.512 46.115 143.378C44.5541 142.49 43.044 141.552 41.5892 140.557C38.2668 138.301 35.2117 135.773 32.4428 132.899C31.1033 131.514 29.8276 130.049 28.6364 128.494C27.0399 126.441 25.5748 124.234 24.2475 121.854C21.6746 117.26 19.5604 112.303 18.1215 107.169C17.4564 104.792 16.9293 102.37 16.57 99.9383Z" fill="#E4F6FD"/>
<path d="M139.512 73.3027V129.936C139.512 132.966 137.055 135.423 134.025 135.423H44.0881C41.0528 135.423 38.5952 132.966 38.5952 129.936V73.3027C38.5952 71.6265 39.3503 70.1257 40.5284 69.1202C41.4927 68.3042 42.7355 67.8164 44.0881 67.8164H134.025C135.371 67.8164 136.608 68.3042 137.566 69.108C138.761 70.1192 139.512 71.62 139.512 73.3027Z" fill="#141414"/>
<path d="M139.512 73.3027L126.058 80.242L87.669 101.618L50.32 79.9334L38.5913 73.3027C38.5913 71.6265 39.3464 70.1257 40.5255 69.1202C41.4888 68.3042 42.7326 67.8164 44.0851 67.8164H134.022C135.368 67.8164 136.605 68.3042 137.562 69.108C138.761 70.1192 139.512 71.62 139.512 73.3027Z" fill="#5A5B5B"/>
<path d="M139.345 130.242L87.6754 102.02L38.7684 130.238L38.4214 129.632L87.6689 101.22L87.8386 101.314L139.683 129.628L139.345 130.242Z" fill="#5A5B5B"/>
<path d="M136.364 68.3557L88.6866 41.8076L41.7456 68.3557C41.7456 69.9268 42.4529 71.3338 43.5578 72.2746C44.4602 73.04 45.627 73.4987 46.8961 73.4987H131.217C132.48 73.4987 133.639 73.04 134.536 72.2877C135.657 71.3404 136.364 69.9334 136.364 68.3557Z" fill="#5A5B5B"/>
<path d="M129.984 38.5091C129.984 39.3252 128.757 52.2676 127.26 67.8167C126.868 71.8388 126.463 76.0345 126.058 80.2423L87.669 101.618L49.3276 79.9337L48.579 67.813L46.6777 36.8704C62.1837 28.1996 129.984 36.408 129.984 38.5091Z" fill="#FDFFFF"/>
<path d="M48.1391 67.8454L46.2144 36.6168L46.4592 36.4779C55.0972 31.6463 78.9213 32.2823 92.3561 33.089C110.526 34.1817 127.809 36.6168 130.006 37.9046C130.289 38.0688 130.43 38.2742 130.43 38.5087H129.537C129.537 38.6212 129.592 38.6944 129.608 38.7113C128.612 37.8014 112.861 35.2576 93.0306 34.0241C62.104 32.0994 51.0338 35.0747 47.1364 37.1242L49.0255 67.7872L48.1391 67.8454Z" fill="#E4F6FD"/>
<path d="M108.789 64.8938C108.789 65.2352 108.78 65.5776 108.763 65.919C108.746 66.2605 108.721 66.601 108.687 66.9415C108.654 67.2819 108.612 67.6215 108.563 67.9592C108.512 68.2978 108.454 68.6345 108.387 68.9703C108.32 69.3052 108.245 69.6391 108.162 69.9702C108.079 70.3023 107.988 70.6315 107.888 70.9589C107.79 71.2862 107.682 71.6108 107.567 71.9325C107.452 72.2542 107.329 72.5732 107.198 72.8893C107.067 73.2054 106.929 73.5177 106.782 73.8273C106.636 74.1359 106.482 74.4417 106.321 74.7427C106.16 75.0448 105.991 75.3421 105.815 75.6357C105.64 75.9284 105.457 76.2173 105.267 76.5015C105.077 76.7857 104.88 77.0652 104.676 77.3401C104.473 77.6149 104.263 77.8841 104.045 78.1486C103.828 78.4131 103.605 78.672 103.375 78.9253C103.146 79.1785 102.91 79.4262 102.668 79.6682C102.427 79.9102 102.179 80.1456 101.926 80.3754C101.672 80.6052 101.413 80.8285 101.15 81.0451C100.885 81.2618 100.616 81.4719 100.341 81.6755C100.066 81.8799 99.7866 82.0769 99.5024 82.2664C99.2182 82.4568 98.9293 82.6397 98.6357 82.8151C98.3421 82.9905 98.0448 83.1594 97.7437 83.3207C97.4417 83.482 97.1368 83.6359 96.8273 83.7813C96.5187 83.9276 96.2063 84.0664 95.8902 84.1968C95.5741 84.3281 95.2552 84.451 94.9335 84.5664C94.6108 84.6817 94.2862 84.7887 93.9598 84.8881C93.6325 84.9875 93.3023 85.0785 92.9712 85.162C92.6391 85.2445 92.3061 85.3196 91.9703 85.3862C91.6355 85.4528 91.2978 85.5119 90.9601 85.5616C90.6215 85.6113 90.2829 85.6535 89.9424 85.6873C89.6019 85.721 89.2614 85.7454 88.919 85.7623C88.5776 85.7792 88.2362 85.7876 87.8938 85.7876C87.5524 85.7876 87.211 85.7792 86.8686 85.7623C86.5272 85.7454 86.1867 85.721 85.8462 85.6873C85.5057 85.6535 85.1671 85.6113 84.8284 85.5616C84.4898 85.5119 84.1531 85.4528 83.8182 85.3862C83.4824 85.3196 83.1494 85.2445 82.8174 85.162C82.4853 85.0785 82.1561 84.9875 81.8287 84.8881C81.5014 84.7887 81.1768 84.6817 80.8551 84.5664C80.5334 84.451 80.2145 84.3281 79.8984 84.1968C79.5822 84.0664 79.2699 83.9276 78.9613 83.7813C78.6518 83.6359 78.346 83.482 78.0449 83.3207C77.7428 83.1594 77.4455 82.9905 77.1528 82.8151C76.8593 82.6397 76.5704 82.4568 76.2861 82.2664C76.0019 82.0769 75.7224 81.8799 75.4476 81.6755C75.1727 81.4719 74.9035 81.2618 74.639 81.0451C74.3745 80.8285 74.1156 80.6052 73.8624 80.3754C73.6091 80.1456 73.3615 79.9102 73.1195 79.6682C72.8784 79.4262 72.642 79.1785 72.4132 78.9253C72.1834 78.672 71.9601 78.4131 71.7425 78.1486C71.5258 77.8841 71.3157 77.6149 71.1122 77.3401C70.9086 77.0652 70.7116 76.7857 70.5212 76.5015C70.3318 76.2173 70.1488 75.9284 69.9725 75.6357C69.7971 75.3421 69.6283 75.0448 69.4669 74.7427C69.3065 74.4417 69.1527 74.1359 69.0064 73.8273C68.86 73.5177 68.7212 73.2054 68.5908 72.8893C68.4595 72.5732 68.3366 72.2542 68.2213 71.9325C68.1059 71.6108 67.999 71.2862 67.8995 70.9589C67.8001 70.6315 67.7091 70.3023 67.6266 69.9702C67.5431 69.6391 67.4681 69.3052 67.4015 68.9703C67.3349 68.6345 67.2767 68.2978 67.2261 67.9592C67.1763 67.6215 67.1341 67.2819 67.1004 66.9415C67.0675 66.601 67.0422 66.2605 67.0253 65.919C67.0084 65.5776 67 65.2352 67 64.8938C67 64.5514 67.0084 64.21 67.0253 63.8686C67.0422 63.5272 67.0675 63.1857 67.1004 62.8462C67.1341 62.5057 67.1763 62.1661 67.2261 61.8275C67.2767 61.4898 67.3349 61.1531 67.4015 60.8173C67.4681 60.4824 67.5431 60.1485 67.6266 59.8165C67.7091 59.4853 67.8001 59.1561 67.8995 58.8287C67.999 58.5014 68.1059 58.1768 68.2213 57.8551C68.3366 57.5324 68.4595 57.2135 68.5908 56.8974C68.7212 56.5822 68.86 56.2699 69.0064 55.9604C69.1527 55.6508 69.3065 55.346 69.4669 55.0439C69.6283 54.7428 69.7971 54.4455 69.9725 54.1519C70.1488 53.8583 70.3318 53.5694 70.5212 53.2852C70.7116 53.001 70.9086 52.7215 71.1122 52.4466C71.3157 52.1727 71.5258 51.9026 71.7425 51.639C71.9601 51.3745 72.1834 51.1156 72.4132 50.8624C72.642 50.6091 72.8784 50.3615 73.1195 50.1195C73.3615 49.8775 73.6091 49.642 73.8624 49.4122C74.1156 49.1824 74.3745 48.9592 74.639 48.7425C74.9035 48.5258 75.1727 48.3148 75.4476 48.1112C75.7224 47.9077 76.0019 47.7107 76.2861 47.5212C76.5704 47.3308 76.8593 47.1479 77.1528 46.9725C77.4455 46.7962 77.7428 46.6283 78.0449 46.4669C78.346 46.3056 78.6518 46.1518 78.9613 46.0054C79.2699 45.8591 79.5822 45.7212 79.8984 45.5899C80.2145 45.4595 80.5334 45.3366 80.8551 45.2213C81.1768 45.1059 81.5014 44.999 81.8287 44.8995C82.1561 44.8001 82.4853 44.7091 82.8174 44.6256C83.1494 44.5431 83.4824 44.4681 83.8182 44.4015C84.1531 44.3339 84.4898 44.2758 84.8284 44.2261C85.1671 44.1754 85.5057 44.1341 85.8462 44.1004C86.1867 44.0666 86.5272 44.0413 86.8686 44.0244C87.211 44.0084 87.5524 44 87.8938 44C88.2362 44 88.5776 44.0084 88.919 44.0244C89.2614 44.0413 89.6019 44.0666 89.9424 44.1004C90.2829 44.1341 90.6215 44.1754 90.9601 44.2261C91.2978 44.2758 91.6355 44.3339 91.9703 44.4015C92.3061 44.4681 92.6391 44.5431 92.9712 44.6256C93.3023 44.7091 93.6325 44.8001 93.9598 44.8995C94.2862 44.999 94.6108 45.1059 94.9335 45.2213C95.2552 45.3366 95.5741 45.4595 95.8902 45.5899C96.2063 45.7212 96.5187 45.8591 96.8273 46.0054C97.1368 46.1518 97.4417 46.3056 97.7437 46.4669C98.0448 46.6283 98.3421 46.7962 98.6357 46.9725C98.9293 47.1479 99.2182 47.3308 99.5024 47.5212C99.7866 47.7107 100.066 47.9077 100.341 48.1112C100.616 48.3148 100.885 48.5258 101.15 48.7425C101.413 48.9592 101.672 49.1824 101.926 49.4122C102.179 49.642 102.427 49.8775 102.668 50.1195C102.91 50.3615 103.146 50.6091 103.375 50.8624C103.605 51.1156 103.828 51.3745 104.045 51.639C104.263 51.9026 104.473 52.1727 104.676 52.4466C104.88 52.7215 105.077 53.001 105.267 53.2852C105.457 53.5694 105.64 53.8583 105.815 54.1519C105.991 54.4455 106.16 54.7428 106.321 55.0439C106.482 55.346 106.636 55.6508 106.782 55.9604C106.929 56.2699 107.067 56.5822 107.198 56.8974C107.329 57.2135 107.452 57.5324 107.567 57.8551C107.682 58.1768 107.79 58.5014 107.888 58.8287C107.988 59.1561 108.079 59.4853 108.162 59.8165C108.245 60.1485 108.32 60.4824 108.387 60.8173C108.454 61.1531 108.512 61.4898 108.563 61.8275C108.612 62.1661 108.654 62.5057 108.687 62.8462C108.721 63.1857 108.746 63.5272 108.763 63.8686C108.78 64.21 108.789 64.5514 108.789 64.8938Z" fill="#00A5E2"/>
<path d="M95.38 55.7099C96.5654 55.2957 97.704 56.4344 97.2899 57.6197L90.3774 77.3714C89.9282 78.6524 88.1432 78.7247 87.5925 77.4845L84.257 69.9805L88.9517 65.2847C89.1063 65.1188 89.1904 64.8994 89.1864 64.6728C89.1824 64.4461 89.0906 64.2298 88.9303 64.0695C88.7699 63.9092 88.5537 63.8173 88.327 63.8133C88.1003 63.8093 87.8809 63.8935 87.715 64.048L83.0192 68.7427L75.5152 65.4072C74.275 64.8554 74.3485 63.0715 75.6284 62.6224L95.38 55.7099Z" fill="#FDFFFF"/>
<path d="M147.505 101.406C147.505 101.776 147.487 102.144 147.45 102.513C147.415 102.88 147.36 103.245 147.288 103.608C147.216 103.971 147.126 104.329 147.019 104.683C146.911 105.037 146.787 105.384 146.646 105.726C146.504 106.068 146.346 106.402 146.172 106.727C145.997 107.054 145.808 107.371 145.603 107.677C145.397 107.985 145.177 108.281 144.942 108.568C144.708 108.854 144.46 109.127 144.198 109.388C143.937 109.65 143.664 109.898 143.378 110.132C143.091 110.367 142.795 110.587 142.487 110.792C142.181 110.998 141.864 111.187 141.537 111.362C141.212 111.536 140.878 111.694 140.536 111.835C140.195 111.977 139.847 112.101 139.493 112.209C139.14 112.316 138.781 112.406 138.418 112.478C138.055 112.55 137.691 112.604 137.323 112.64C136.955 112.677 136.586 112.695 136.216 112.695C135.846 112.695 135.478 112.677 135.11 112.64C134.741 112.604 134.377 112.55 134.014 112.478C133.652 112.406 133.293 112.316 132.94 112.209C132.585 112.101 132.238 111.977 131.897 111.835C131.554 111.694 131.221 111.536 130.895 111.362C130.568 111.187 130.252 110.998 129.945 110.792C129.637 110.587 129.341 110.367 129.054 110.132C128.769 109.898 128.495 109.65 128.234 109.388C127.972 109.127 127.724 108.854 127.49 108.568C127.255 108.281 127.035 107.985 126.829 107.677C126.624 107.371 126.435 107.054 126.26 106.727C126.086 106.402 125.928 106.068 125.786 105.726C125.645 105.384 125.521 105.037 125.413 104.683C125.306 104.329 125.216 103.971 125.144 103.608C125.073 103.245 125.018 102.88 124.982 102.513C124.946 102.144 124.927 101.776 124.927 101.406C124.927 101.036 124.946 100.668 124.982 100.299C125.018 99.9314 125.073 99.5665 125.144 99.2035C125.216 98.8415 125.306 98.4832 125.413 98.1286C125.521 97.775 125.645 97.4279 125.786 97.0855C125.928 96.7441 126.086 96.4102 126.26 96.0847C126.435 95.7583 126.624 95.4422 126.829 95.1345C127.035 94.8269 127.255 94.5304 127.49 94.2444C127.724 93.9583 127.972 93.6853 128.234 93.4236C128.495 93.1619 128.769 92.9143 129.054 92.6798C129.341 92.4453 129.637 92.2249 129.945 92.0194C130.252 91.814 130.568 91.6245 130.895 91.4501C131.221 91.2756 131.554 91.118 131.897 90.9764C132.238 90.8348 132.585 90.7109 132.94 90.6031C133.293 90.4961 133.652 90.4061 134.014 90.3339C134.377 90.2616 134.741 90.2082 135.11 90.1716C135.478 90.135 135.846 90.1172 136.216 90.1172C136.586 90.1172 136.955 90.135 137.323 90.1716C137.691 90.2082 138.055 90.2616 138.418 90.3339C138.781 90.4061 139.14 90.4961 139.493 90.6031C139.847 90.7109 140.195 90.8348 140.536 90.9764C140.878 91.118 141.212 91.2756 141.537 91.4501C141.864 91.6245 142.181 91.814 142.487 92.0194C142.795 92.2249 143.091 92.4453 143.378 92.6798C143.664 92.9143 143.937 93.1619 144.198 93.4236C144.46 93.6853 144.708 93.9583 144.942 94.2444C145.177 94.5304 145.397 94.8269 145.603 95.1345C145.808 95.4422 145.997 95.7583 146.172 96.0847C146.346 96.4102 146.504 96.7441 146.646 97.0855C146.787 97.4279 146.911 97.775 147.019 98.1286C147.126 98.4832 147.216 98.8415 147.288 99.2035C147.36 99.5665 147.415 99.9314 147.45 100.299C147.487 100.668 147.505 101.036 147.505 101.406Z" fill="#00A5E2"/>
<path d="M130.584 106.177L131.153 104.988C131.393 104.484 131.487 103.925 131.42 103.372L131.073 100.587C130.793 98.3156 132.081 96.2145 134.092 95.3637C134.086 95.3318 134.076 95.3055 134.07 95.2765C133.977 94.5223 134.513 93.8376 135.265 93.741C136.02 93.6481 136.704 94.1818 136.8 94.936C136.804 94.9688 136.8 94.9941 136.804 95.026C138.957 95.3571 140.723 97.0821 141.006 99.3539L141.352 102.135C141.42 102.691 141.645 103.212 142.001 103.642L142.846 104.657L130.584 106.177Z" fill="#FDFFFF"/>
<path d="M133.858 106.889C131.388 106.889 130.735 106.44 130.707 106.328C130.71 106.019 132.522 104.975 136.588 104.47C137.633 104.342 138.671 104.271 139.593 104.271C142.062 104.271 142.715 104.721 142.743 104.833C142.741 105.142 140.928 106.186 136.862 106.691C135.821 106.819 134.784 106.889 133.858 106.889Z" fill="#00A5E2"/>
<path d="M139.596 104.625C141 104.625 141.796 104.779 142.185 104.912C141.539 105.322 139.715 105.99 136.823 106.347C135.795 106.475 134.771 106.543 133.862 106.543C132.457 106.543 131.661 106.389 131.272 106.258C131.918 105.846 133.743 105.178 136.633 104.822C137.661 104.693 138.687 104.625 139.596 104.625ZM139.596 103.925C138.683 103.925 137.643 103.99 136.547 104.124C133.032 104.561 130.264 105.566 130.363 106.369C130.43 106.923 131.841 107.237 133.862 107.237C134.773 107.237 135.815 107.173 136.91 107.038C140.425 106.601 143.194 105.595 143.094 104.792C143.023 104.236 141.613 103.925 139.596 103.925Z" fill="#FDFFFF"/>
<path d="M138.272 104.271V104.287C138.272 105.212 137.521 105.965 136.595 105.965C135.801 105.965 135.136 105.415 134.963 104.673C135.465 104.587 135.997 104.506 136.543 104.438C137.142 104.364 137.722 104.31 138.272 104.271Z" fill="#FDFFFF"/>
<mask id="mask0_36123_3057" style="mask-type:luminance" maskUnits="userSpaceOnUse" x="51" y="20" width="2" height="6">
<path d="M51.2729 20.9365H52.9538V25.4089H51.2729V20.9365Z" fill="white"/>
</mask>
<g mask="url(#mask0_36123_3057)">
<path d="M52.1867 25.1702C51.8012 25.1702 51.4897 24.8588 51.4897 24.4733V21.6237C51.4897 21.2382 51.8012 20.9268 52.1867 20.9268C52.5722 20.9268 52.8836 21.2382 52.8836 21.6237V24.4733C52.8836 24.8588 52.5722 25.1702 52.1867 25.1702Z" fill="#5A5B5B"/>
</g>
<path d="M52.1867 32.0775C51.8012 32.0775 51.4897 31.7661 51.4897 31.3805V28.5309C51.4897 28.1454 51.8012 27.834 52.1867 27.834C52.5722 27.834 52.8836 28.1454 52.8836 28.5309V31.3805C52.8836 31.7661 52.5722 32.0775 52.1867 32.0775Z" fill="#5A5B5B"/>
<path d="M57.0671 27.2005H54.2174C53.8319 27.2005 53.5205 26.8891 53.5205 26.5036C53.5205 26.1181 53.8319 25.8066 54.2174 25.8066H57.0671C57.4526 25.8066 57.764 26.1181 57.764 26.5036C57.764 26.8891 57.4526 27.2005 57.0671 27.2005Z" fill="#5A5B5B"/>
<path d="M50.1598 27.2005H47.3102C46.9247 27.2005 46.6133 26.8891 46.6133 26.5036C46.6133 26.1181 46.9247 25.8066 47.3102 25.8066H50.1598C50.5454 25.8066 50.8568 26.1181 50.8568 26.5036C50.8568 26.8891 50.5454 27.2005 50.1598 27.2005Z" fill="#5A5B5B"/>
<path d="M152.079 56.7045C151.806 56.7045 151.585 56.4831 151.585 56.2102V54.1926C151.585 53.9196 151.806 53.6982 152.079 53.6982C152.352 53.6982 152.575 53.9196 152.575 54.1926V56.2102C152.575 56.4831 152.352 56.7045 152.079 56.7045Z" fill="#5A5B5B"/>
<path d="M152.079 61.5941C151.806 61.5941 151.585 61.3728 151.585 61.0989V59.0822C151.585 58.8083 151.806 58.5869 152.079 58.5869C152.352 58.5869 152.575 58.8083 152.575 59.0822V61.0989C152.575 61.3728 152.352 61.5941 152.079 61.5941Z" fill="#5A5B5B"/>
<mask id="mask1_36123_3057" style="mask-type:luminance" maskUnits="userSpaceOnUse" x="152" y="57" width="4" height="2">
<path d="M152.847 57.1055H156V58.3061H152.847V57.1055Z" fill="white"/>
</mask>
<g mask="url(#mask1_36123_3057)">
<path d="M155.533 58.14H153.515C153.242 58.14 153.021 57.9186 153.021 57.6457C153.021 57.3727 153.242 57.1504 153.515 57.1504H155.533C155.806 57.1504 156.027 57.3727 156.027 57.6457C156.027 57.9186 155.806 58.14 155.533 58.14Z" fill="#5A5B5B"/>
</g>
<path d="M150.643 58.14H148.626C148.353 58.14 148.131 57.9186 148.131 57.6457C148.131 57.3727 148.353 57.1504 148.626 57.1504H150.643C150.916 57.1504 151.139 57.3727 151.139 57.6457C151.139 57.9186 150.916 58.14 150.643 58.14Z" fill="#5A5B5B"/>
<path d="M27.8042 85.8676C27.4891 85.8676 27.2349 85.6134 27.2349 85.2992V82.9796C27.2349 82.6644 27.4891 82.4111 27.8042 82.4111C28.1185 82.4111 28.3726 82.6644 28.3726 82.9796V85.2992C28.3726 85.6134 28.1185 85.8676 27.8042 85.8676Z" fill="#5A5B5B"/>
<path d="M27.8042 91.4926C27.4891 91.4926 27.2349 91.2384 27.2349 90.9242V88.6046C27.2349 88.2894 27.4891 88.0361 27.8042 88.0361C28.1185 88.0361 28.3726 88.2894 28.3726 88.6046V90.9242C28.3726 91.2356 28.1185 91.4926 27.8042 91.4926Z" fill="#5A5B5B"/>
<path d="M31.7777 87.5177H29.4581C29.1438 87.5177 28.8896 87.2644 28.8896 86.9493C28.8896 86.6351 29.1438 86.3809 29.4581 86.3809H31.7777C32.0929 86.3809 32.3462 86.6351 32.3462 86.9493C32.3462 87.2644 32.0929 87.5177 31.7777 87.5177Z" fill="#5A5B5B"/>
<path d="M26.1527 87.5177H23.8331C23.5188 87.5177 23.2646 87.2644 23.2646 86.9493C23.2646 86.6351 23.5188 86.3809 23.8331 86.3809H26.1527C26.4679 86.3809 26.7212 86.6351 26.7212 86.9493C26.7212 87.2644 26.4679 87.5177 26.1527 87.5177Z" fill="#5A5B5B"/>
<path d="M34.2495 108.675H90.3472C94.3701 108.675 97.6322 111.936 97.6323 115.959C97.6323 119.982 94.3702 123.243 90.3472 123.243H34.2495C30.2266 123.243 26.9653 119.982 26.9653 115.959C26.9654 111.936 30.2266 108.675 34.2495 108.675Z" fill="#FDFFFF"/>
<path d="M34.2495 108.675H90.3472C94.3701 108.675 97.6322 111.936 97.6323 115.959C97.6323 119.982 94.3702 123.243 90.3472 123.243H34.2495C30.2266 123.243 26.9653 119.982 26.9653 115.959C26.9654 111.936 30.2266 108.675 34.2495 108.675Z" stroke="#E7EDED"/>
<path d="M34.4653 115.269H78.5632V116.65H34.4653V115.269Z" fill="#F2755E"/>
<path d="M90.1321 115.96C90.1321 116.208 90.1078 116.454 90.059 116.698C90.0102 116.942 89.9389 117.178 89.8432 117.408C89.7485 117.637 89.6322 117.855 89.4943 118.062C89.3555 118.268 89.1988 118.459 89.0234 118.635C88.848 118.811 88.6567 118.968 88.4503 119.106C88.243 119.244 88.0254 119.361 87.7956 119.456C87.5658 119.55 87.3294 119.622 87.0855 119.671C86.8417 119.719 86.5959 119.743 86.3473 119.743C86.0988 119.743 85.853 119.719 85.6091 119.671C85.3653 119.622 85.1289 119.55 84.8991 119.456C84.6693 119.361 84.4517 119.244 84.2453 119.106C84.038 118.968 83.8476 118.811 83.6712 118.635C83.4958 118.459 83.3392 118.268 83.2013 118.062C83.0625 117.855 82.9462 117.637 82.8514 117.408C82.7558 117.178 82.6845 116.942 82.6357 116.698C82.5869 116.454 82.5635 116.208 82.5635 115.96C82.5635 115.711 82.5869 115.464 82.6357 115.221C82.6845 114.978 82.7558 114.74 82.8514 114.511C82.9462 114.282 83.0625 114.063 83.2013 113.857C83.3392 113.65 83.4958 113.459 83.6712 113.284C83.8476 113.108 84.038 112.951 84.2453 112.813C84.4517 112.675 84.6693 112.558 84.8991 112.463C85.1289 112.368 85.3653 112.296 85.6091 112.248C85.853 112.199 86.0988 112.175 86.3473 112.175C86.5959 112.175 86.8417 112.199 87.0855 112.248C87.3294 112.296 87.5658 112.368 87.7956 112.463C88.0254 112.558 88.243 112.675 88.4503 112.813C88.6567 112.951 88.848 113.108 89.0234 113.284C89.1988 113.459 89.3555 113.65 89.4943 113.857C89.6322 114.063 89.7485 114.282 89.8432 114.511C89.9389 114.74 90.0102 114.978 90.059 115.221C90.1078 115.464 90.1321 115.711 90.1321 115.96Z" fill="#00AA9F"/>
<path d="M85.0491 117.27C85.0144 117.27 84.9759 117.263 84.9403 117.25C84.8502 117.218 84.7761 117.151 84.7414 117.065L84.1336 115.644C84.0605 115.474 84.1402 115.275 84.3109 115.201C84.4807 115.128 84.6805 115.207 84.7536 115.378L85.217 116.454L88.4127 114.684C88.5769 114.594 88.7795 114.652 88.8696 114.815C88.9596 114.979 88.9014 115.182 88.7373 115.272L85.217 117.222C85.1617 117.257 85.1044 117.27 85.0491 117.27Z" fill="#FDFFFF"/>
</svg>
