<svg width="201" height="57" viewBox="0 0 201 57" fill="none" xmlns="http://www.w3.org/2000/svg">
<rect x="0.407227" width="200.296" height="57" rx="28.5" fill="#202020"/>
<path d="M32.316 14.1312C31.9661 14.4834 31.7637 15.0318 31.7637 15.742V41.0747C31.7637 41.7849 31.9661 42.3333 32.316 42.6856L32.4023 42.7629L47.1605 28.573V28.238L32.4023 14.0481L32.316 14.1312Z" fill="url(#paint0_linear_1_17617)"/>
<path d="M52.0741 33.3054L47.1602 28.573V28.238L52.0801 23.5056L52.1902 23.5672L58.0167 26.756C59.6795 27.6609 59.6795 29.1501 58.0167 30.0607L52.1902 33.2438L52.0741 33.3054Z" fill="url(#paint1_linear_1_17617)"/>
<path d="M52.1901 33.2438L47.16 28.4055L32.3154 42.6855C32.8677 43.244 33.7683 43.3113 34.7925 42.7528L52.1901 33.2438Z" fill="url(#paint2_linear_1_17617)"/>
<path d="M52.1901 23.5672L34.7925 14.0581C33.7683 13.5054 32.8677 13.5727 32.3154 14.1311L47.16 28.4055L52.1901 23.5672Z" fill="url(#paint3_linear_1_17617)"/>
<path d="M76.3586 17.2297C76.3586 18.1862 76.0608 18.9523 75.4743 19.5236C74.8 20.2009 73.9217 20.5416 72.8454 20.5416C71.8168 20.5416 70.9385 20.1951 70.218 19.5121C69.496 18.8191 69.1357 17.9686 69.1357 16.9505C69.1357 15.9324 69.496 15.0819 70.218 14.3946C70.9385 13.7059 71.8168 13.3594 72.8454 13.3594C73.3575 13.3594 73.8458 13.461 74.3117 13.65C74.7761 13.8405 75.1543 14.0982 75.4282 14.4161L74.8059 15.0203C74.3281 14.4777 73.6775 14.2099 72.8454 14.2099C72.0951 14.2099 71.4446 14.4619 70.8923 14.9702C70.346 15.48 70.0721 16.1401 70.0721 16.9505C70.0721 17.761 70.346 18.4268 70.8923 18.9365C71.4446 19.4391 72.0951 19.6968 72.8454 19.6968C73.6418 19.6968 74.3117 19.4391 74.8402 18.9308C75.1885 18.5943 75.3865 18.1304 75.4386 17.5376H72.8454V16.71H76.305C76.3466 16.8889 76.3586 17.0622 76.3586 17.2297Z" fill="white" stroke="white" stroke-width="0.16" stroke-miterlimit="10"/>
<path d="M81.8474 14.3603H78.5977V16.5367H81.5273V17.3643H78.5977V19.5408H81.8474V20.3842H77.6777V13.5169H81.8474V14.3603Z" fill="white" stroke="white" stroke-width="0.16" stroke-miterlimit="10"/>
<path d="M85.7209 20.3842H84.8009V14.3603H82.8076V13.5169H87.7156V14.3603H85.7209V20.3842Z" fill="white" stroke="white" stroke-width="0.16" stroke-miterlimit="10"/>
<path d="M91.2676 20.3842V13.5169H92.1861V20.3842H91.2676Z" fill="white" stroke="white" stroke-width="0.16" stroke-miterlimit="10"/>
<path d="M96.257 20.3842H95.3445V14.3603H93.3438V13.5169H98.2577V14.3603H96.257V20.3842Z" fill="white" stroke="white" stroke-width="0.16" stroke-miterlimit="10"/>
<path d="M107.55 19.5007C106.846 20.1951 105.974 20.5416 104.933 20.5416C103.887 20.5416 103.014 20.1951 102.31 19.5007C101.608 18.8076 101.258 17.9571 101.258 16.9505C101.258 15.9439 101.608 15.0934 102.31 14.4003C103.014 13.7059 103.887 13.3594 104.933 13.3594C105.968 13.3594 106.84 13.7059 107.544 14.4061C108.253 15.1048 108.603 15.9496 108.603 16.9505C108.603 17.9571 108.253 18.8076 107.55 19.5007ZM102.991 18.9251C103.521 19.4391 104.165 19.6968 104.933 19.6968C105.695 19.6968 106.346 19.4391 106.87 18.9251C107.398 18.411 107.666 17.7509 107.666 16.9505C107.666 16.1501 107.398 15.49 106.87 14.976C106.346 14.4619 105.695 14.2042 104.933 14.2042C104.165 14.2042 103.521 14.4619 102.991 14.976C102.462 15.49 102.194 16.1501 102.194 16.9505C102.194 17.7509 102.462 18.411 102.991 18.9251Z" fill="white" stroke="white" stroke-width="0.16" stroke-miterlimit="10"/>
<path d="M109.893 20.3842V13.5169H111.009L114.481 18.8578H114.521L114.481 17.5376V13.5169H115.399V20.3842H114.44L110.805 14.7798H110.765L110.805 16.1057V20.3842H109.893Z" fill="white" stroke="white" stroke-width="0.16" stroke-miterlimit="10"/>
<path d="M101.03 30.413C98.233 30.413 95.948 32.4606 95.948 35.2857C95.948 38.0878 98.233 40.1569 101.03 40.1569C103.833 40.1569 106.118 38.0878 106.118 35.2857C106.118 32.4606 103.833 30.413 101.03 30.413ZM101.03 38.2382C99.4954 38.2382 98.175 37.0196 98.175 35.2857C98.175 33.5287 99.4954 32.3317 101.03 32.3317C102.565 32.3317 103.891 33.5287 103.891 35.2857C103.891 37.0196 102.565 38.2382 101.03 38.2382ZM89.9414 30.413C87.1383 30.413 84.8592 32.4606 84.8592 35.2857C84.8592 38.0878 87.1383 40.1569 89.9414 40.1569C92.743 40.1569 95.0235 38.0878 95.0235 35.2857C95.0235 32.4606 92.743 30.413 89.9414 30.413ZM89.9414 38.2382C88.4051 38.2382 87.0802 37.0196 87.0802 35.2857C87.0802 33.5287 88.4051 32.3317 89.9414 32.3317C91.4761 32.3317 92.7966 33.5287 92.7966 35.2857C92.7966 37.0196 91.4761 38.2382 89.9414 38.2382ZM76.7462 31.9064V33.9769H81.8864C81.7361 35.1339 81.3341 35.9844 80.7178 36.5772C79.9676 37.2931 78.799 38.0878 76.7462 38.0878C73.5829 38.0878 71.1058 35.6322 71.1058 32.5894C71.1058 29.5467 73.5829 27.091 76.7462 27.091C78.4566 27.091 79.7011 27.734 80.6196 28.5673L82.1365 27.1082C80.8518 25.9284 79.1429 25.022 76.7462 25.022C72.4083 25.022 68.7627 28.417 68.7627 32.5894C68.7627 36.7619 72.4083 40.1569 76.7462 40.1569C79.0908 40.1569 80.8518 39.418 82.2362 38.032C83.6549 36.6674 84.097 34.7487 84.097 33.1994C84.097 32.7183 84.0553 32.2759 83.9809 31.9064H76.7462ZM130.703 33.5116C130.285 32.4219 128.994 30.413 126.365 30.413C123.76 30.413 121.591 32.3875 121.591 35.2857C121.591 38.0148 123.738 40.1569 126.615 40.1569C128.942 40.1569 130.285 38.7923 130.837 37.9976L129.11 36.8908C128.534 37.7012 127.749 38.2382 126.615 38.2382C125.488 38.2382 124.68 37.7413 124.162 36.7619L130.937 34.0657L130.703 33.5116ZM123.796 35.1339C123.738 33.2553 125.313 32.293 126.441 32.293C127.325 32.293 128.076 32.7183 128.326 33.3268L123.796 35.1339ZM118.289 39.8605H120.516V25.5418H118.289V39.8605ZM114.642 31.4983H114.568C114.068 30.9285 113.113 30.413 111.905 30.413C109.368 30.413 107.049 32.5551 107.049 35.3014C107.049 38.032 109.368 40.1569 111.905 40.1569C113.113 40.1569 114.068 39.6371 114.568 39.05H114.642V39.7488C114.642 41.6117 113.608 42.6125 111.939 42.6125C110.578 42.6125 109.734 41.6675 109.386 40.8728L107.449 41.6503C108.007 42.9419 109.486 44.5312 111.939 44.5312C114.55 44.5312 116.753 43.0536 116.753 39.4581V30.7094H114.642V31.4983ZM112.095 38.2382C110.56 38.2382 109.276 37.0025 109.276 35.3014C109.276 33.5846 110.56 32.3317 112.095 32.3317C113.608 32.3317 114.8 33.5846 114.8 35.3014C114.8 37.0025 113.608 38.2382 112.095 38.2382ZM141.129 25.5418H135.803V39.8605H138.024V34.4351H141.129C143.596 34.4351 146.015 32.7183 146.015 29.9877C146.015 27.2586 143.59 25.5418 141.129 25.5418ZM141.187 32.4434H138.024V27.5335H141.187C142.846 27.5335 143.792 28.858 143.792 29.9877C143.792 31.096 142.846 32.4434 141.187 32.4434ZM154.917 30.3858C153.312 30.3858 151.643 31.0674 150.957 32.578L152.928 33.3727C153.352 32.578 154.132 32.3202 154.957 32.3202C156.109 32.3202 157.278 32.9861 157.296 34.1616V34.312C156.894 34.0886 156.033 33.7578 154.975 33.7578C152.852 33.7578 150.689 34.8819 150.689 36.9796C150.689 38.8983 152.428 40.134 154.382 40.134C155.877 40.134 156.702 39.4853 157.22 38.7307H157.296V39.8376H159.441V34.3449C159.441 31.8062 157.47 30.3858 154.917 30.3858ZM154.649 38.2324C153.923 38.2324 152.91 37.8859 152.91 37.0196C152.91 35.9114 154.173 35.4861 155.265 35.4861C156.243 35.4861 156.702 35.6937 157.296 35.9672C157.122 37.2931 155.935 38.2324 154.649 38.2324ZM167.256 30.6994L164.703 36.9065H164.627L161.988 30.6994H159.593L163.558 39.3736L161.296 44.2005H163.616L169.727 30.6994H167.256ZM147.236 39.8605H149.463V25.5418H147.236V39.8605Z" fill="white"/>
<defs>
<linearGradient id="paint0_linear_1_17617" x1="45.8502" y1="41.3385" x2="26.6405" y2="21.3674" gradientUnits="userSpaceOnUse">
<stop stop-color="#00A0FF"/>
<stop offset="0.0066" stop-color="#00A1FF"/>
<stop offset="0.2601" stop-color="#00BEFF"/>
<stop offset="0.5122" stop-color="#00D2FF"/>
<stop offset="0.7604" stop-color="#00DFFF"/>
<stop offset="1" stop-color="#00E3FF"/>
</linearGradient>
<linearGradient id="paint1_linear_1_17617" x1="60.1819" y1="28.4039" x2="31.3658" y2="28.4039" gradientUnits="userSpaceOnUse">
<stop stop-color="#FFE000"/>
<stop offset="0.4087" stop-color="#FFBD00"/>
<stop offset="0.7754" stop-color="#FFA500"/>
<stop offset="1" stop-color="#FF9C00"/>
</linearGradient>
<linearGradient id="paint2_linear_1_17617" x1="49.4549" y1="25.7753" x2="23.405" y2="-1.30712" gradientUnits="userSpaceOnUse">
<stop stop-color="#FF3A44"/>
<stop offset="1" stop-color="#C31162"/>
</linearGradient>
<linearGradient id="paint3_linear_1_17617" x1="28.5787" y1="51.1136" x2="40.2112" y2="39.0202" gradientUnits="userSpaceOnUse">
<stop stop-color="#32A071"/>
<stop offset="0.0685" stop-color="#2DA771"/>
<stop offset="0.4762" stop-color="#15CF74"/>
<stop offset="0.8009" stop-color="#06E775"/>
<stop offset="1" stop-color="#00F076"/>
</linearGradient>
</defs>
</svg>
