<svg width="209" height="60" viewBox="0 0 209 60" fill="none" xmlns="http://www.w3.org/2000/svg">
<path d="M0 30C0 13.4315 13.4315 0 30 0H178C194.569 0 208 13.4315 208 30C208 46.5685 194.569 60 178 60H30C13.4315 60 0 46.5685 0 30Z" fill="#FDFFFF"/>
<path d="M33.136 14.8731C32.7727 15.2438 32.5625 15.8211 32.5625 16.5687V43.2347C32.5625 43.9823 32.7727 44.5595 33.136 44.9303L33.2257 45.0117L48.5515 30.075V29.7223L33.2257 14.7856L33.136 14.8731Z" fill="url(#paint0_linear_42001_426)"/>
<path d="M53.6537 35.0586L48.5508 30.0772V29.7245L53.6599 24.7431L53.7743 24.8079L59.8249 28.1645C61.5516 29.1171 61.5516 30.6846 59.8249 31.6432L53.7743 34.9938L53.6537 35.0586Z" fill="url(#paint1_linear_42001_426)"/>
<path d="M53.7758 34.9936L48.5522 29.9006L33.1367 44.9323C33.7102 45.5201 34.6455 45.5909 35.7091 45.0031L53.7758 34.9936Z" fill="url(#paint2_linear_42001_426)"/>
<path d="M53.7758 24.8094L35.7091 14.7999C34.6455 14.2181 33.7102 14.2889 33.1367 14.8767L48.5522 29.9023L53.7758 24.8094Z" fill="url(#paint3_linear_42001_426)"/>
<path d="M78.8717 18.1366C78.8717 19.1434 78.5625 19.9498 77.9535 20.5511C77.2532 21.2641 76.3411 21.6228 75.2234 21.6228C74.1552 21.6228 73.2432 21.258 72.4949 20.5391C71.7452 19.8096 71.3711 18.9143 71.3711 17.8426C71.3711 16.771 71.7452 15.8757 72.4949 15.1522C73.2432 14.4273 74.1552 14.0625 75.2234 14.0625C75.7552 14.0625 76.2623 14.1695 76.7461 14.3685C77.2284 14.5689 77.6211 14.8402 77.9055 15.1748L77.2594 15.8109C76.7631 15.2397 76.0876 14.9578 75.2234 14.9578C74.4443 14.9578 73.7688 15.2231 73.1952 15.7581C72.6279 16.2947 72.3434 16.9895 72.3434 17.8426C72.3434 18.6957 72.6279 19.3966 73.1952 19.9332C73.7688 20.4622 74.4443 20.7335 75.2234 20.7335C76.0505 20.7335 76.7461 20.4622 77.2949 19.9271C77.6566 19.5729 77.8623 19.0846 77.9164 18.4606H75.2234V17.5894H78.8161C78.8593 17.7778 78.8717 17.9602 78.8717 18.1366Z" fill="black" stroke="black" stroke-width="0.16" stroke-miterlimit="10"/>
<path d="M84.5722 15.1182H81.1975V17.4092H84.2398V18.2804H81.1975V20.5714H84.5722V21.4592H80.2422V14.2305H84.5722V15.1182Z" fill="black" stroke="black" stroke-width="0.16" stroke-miterlimit="10"/>
<path d="M88.5956 21.4592H87.6402V15.1182H85.5703V14.2305H90.6671V15.1182H88.5956V21.4592Z" fill="black" stroke="black" stroke-width="0.16" stroke-miterlimit="10"/>
<path d="M94.3555 21.4592V14.2305H95.3093V21.4592H94.3555Z" fill="black" stroke="black" stroke-width="0.16" stroke-miterlimit="10"/>
<path d="M99.537 21.4592H98.5894V15.1182H96.5117V14.2305H101.615V15.1182H99.537V21.4592Z" fill="black" stroke="black" stroke-width="0.16" stroke-miterlimit="10"/>
<path d="M111.261 20.527C110.53 21.258 109.624 21.6228 108.543 21.6228C107.457 21.6228 106.551 21.258 105.82 20.527C105.09 19.7975 104.727 18.9022 104.727 17.8426C104.727 16.7831 105.09 15.8878 105.82 15.1583C106.551 14.4273 107.457 14.0625 108.543 14.0625C109.618 14.0625 110.524 14.4273 111.255 15.1643C111.991 15.8998 112.354 16.7891 112.354 17.8426C112.354 18.9022 111.991 19.7975 111.261 20.527ZM106.526 19.9211C107.076 20.4622 107.746 20.7335 108.543 20.7335C109.335 20.7335 110.01 20.4622 110.555 19.9211C111.103 19.38 111.382 18.6852 111.382 17.8426C111.382 17.0001 111.103 16.3053 110.555 15.7642C110.01 15.2231 109.335 14.9518 108.543 14.9518C107.746 14.9518 107.076 15.2231 106.526 15.7642C105.977 16.3053 105.699 17.0001 105.699 17.8426C105.699 18.6852 105.977 19.38 106.526 19.9211Z" fill="black" stroke="black" stroke-width="0.16" stroke-miterlimit="10"/>
<path d="M113.695 21.4592V14.2305H114.855L118.46 19.8524H118.501L118.46 18.4628V14.2305H119.414V21.4592H118.418L114.643 15.5598H114.601L114.643 16.9555V21.4592H113.695Z" fill="black" stroke="black" stroke-width="0.16" stroke-miterlimit="10"/>
<path d="M104.493 32.0137C101.588 32.0137 99.2152 34.169 99.2152 37.1428C99.2152 40.0924 101.588 42.2704 104.493 42.2704C107.404 42.2704 109.777 40.0924 109.777 37.1428C109.777 34.169 107.404 32.0137 104.493 32.0137ZM104.493 40.2507C102.899 40.2507 101.528 38.9681 101.528 37.1428C101.528 35.2934 102.899 34.0334 104.493 34.0334C106.087 34.0334 107.464 35.2934 107.464 37.1428C107.464 38.9681 106.087 40.2507 104.493 40.2507ZM92.9776 32.0137C90.0667 32.0137 87.7 34.169 87.7 37.1428C87.7 40.0924 90.0667 42.2704 92.9776 42.2704C95.887 42.2704 98.2553 40.0924 98.2553 37.1428C98.2553 34.169 95.887 32.0137 92.9776 32.0137ZM92.9776 40.2507C91.3823 40.2507 90.0064 38.9681 90.0064 37.1428C90.0064 35.2934 91.3823 34.0334 92.9776 34.0334C94.5714 34.0334 95.9426 35.2934 95.9426 37.1428C95.9426 38.9681 94.5714 40.2507 92.9776 40.2507ZM79.2749 33.5857V35.7652H84.6129C84.4567 36.983 84.0393 37.8783 83.3993 38.5023C82.6202 39.2559 81.4067 40.0924 79.2749 40.0924C75.9899 40.0924 73.4176 37.5075 73.4176 34.3047C73.4176 31.1018 75.9899 28.5169 79.2749 28.5169C81.0511 28.5169 82.3435 29.1936 83.2973 30.0708L84.8726 28.535C83.5385 27.293 81.7638 26.3389 79.2749 26.3389C74.7702 26.3389 70.9844 29.9126 70.9844 34.3047C70.9844 38.6967 74.7702 42.2704 79.2749 42.2704C81.7097 42.2704 83.5385 41.4927 84.9761 40.0337C86.4494 38.5973 86.9085 36.5776 86.9085 34.9467C86.9085 34.4403 86.8652 33.9746 86.7879 33.5857H79.2749ZM135.307 35.2753C134.873 34.1283 133.532 32.0137 130.802 32.0137C128.097 32.0137 125.845 34.0921 125.845 37.1428C125.845 40.0156 128.074 42.2704 131.062 42.2704C133.478 42.2704 134.873 40.834 135.446 39.9975L133.653 38.8324C133.055 39.6855 132.24 40.2507 131.062 40.2507C129.892 40.2507 129.052 39.7277 128.514 38.6967L135.55 35.8586L135.307 35.2753ZM128.134 36.983C128.074 35.0055 129.709 33.9927 130.881 33.9927C131.799 33.9927 132.578 34.4403 132.838 35.0809L128.134 36.983ZM122.416 41.9584H124.728V26.8861H122.416V41.9584ZM118.628 33.1562H118.551C118.032 32.5563 117.041 32.0137 115.786 32.0137C113.151 32.0137 110.743 34.2685 110.743 37.1594C110.743 40.0337 113.151 42.2704 115.786 42.2704C117.041 42.2704 118.032 41.7233 118.551 41.1053H118.628V41.8408C118.628 43.8018 117.554 44.8553 115.821 44.8553C114.408 44.8553 113.532 43.8605 113.17 43.024L111.159 43.8424C111.738 45.202 113.273 46.875 115.821 46.875C118.533 46.875 120.82 45.3195 120.82 41.5349V32.3257H118.628V33.1562ZM115.983 40.2507C114.39 40.2507 113.056 38.95 113.056 37.1594C113.056 35.3522 114.39 34.0334 115.983 34.0334C117.554 34.0334 118.792 35.3522 118.792 37.1594C118.792 38.95 117.554 40.2507 115.983 40.2507ZM146.134 26.8861H140.603V41.9584H142.91V36.2475H146.134C148.696 36.2475 151.208 34.4403 151.208 31.566C151.208 28.6932 148.69 26.8861 146.134 26.8861ZM146.195 34.1509H142.91V28.9826H146.195C147.917 28.9826 148.9 30.3768 148.9 31.566C148.9 32.7326 147.917 34.1509 146.195 34.1509ZM160.452 31.985C158.786 31.985 157.053 32.7025 156.34 34.2926L158.387 35.1291C158.827 34.2926 159.638 34.0213 160.494 34.0213C161.69 34.0213 162.904 34.7222 162.923 35.9596V36.1179C162.505 35.8827 161.612 35.5346 160.513 35.5346C158.308 35.5346 156.062 36.7178 156.062 38.9258C156.062 40.9455 157.868 42.2463 159.897 42.2463C161.449 42.2463 162.306 41.5635 162.844 40.7692H162.923V41.9343H165.15V36.1525C165.15 33.4802 163.103 31.985 160.452 31.985ZM160.174 40.2447C159.42 40.2447 158.368 39.8799 158.368 38.9681C158.368 37.8015 159.679 37.3538 160.814 37.3538C161.83 37.3538 162.306 37.5724 162.923 37.8602C162.742 39.2559 161.51 40.2447 160.174 40.2447ZM173.266 32.3151L170.615 38.849H170.536L167.795 32.3151H165.308L169.426 41.4459L167.076 46.5268H169.486L175.832 32.3151H173.266ZM152.475 41.9584H154.788V26.8861H152.475V41.9584Z" fill="black"/>
<defs>
<linearGradient id="paint0_linear_42001_426" x1="47.1908" y1="43.5124" x2="26.9613" y2="22.7642" gradientUnits="userSpaceOnUse">
<stop stop-color="#00A0FF"/>
<stop offset="0.0066" stop-color="#00A1FF"/>
<stop offset="0.2601" stop-color="#00BEFF"/>
<stop offset="0.5122" stop-color="#00D2FF"/>
<stop offset="0.7604" stop-color="#00DFFF"/>
<stop offset="1" stop-color="#00E3FF"/>
</linearGradient>
<linearGradient id="paint1_linear_42001_426" x1="62.0734" y1="29.8992" x2="32.149" y2="29.8992" gradientUnits="userSpaceOnUse">
<stop stop-color="#FFE000"/>
<stop offset="0.4087" stop-color="#FFBD00"/>
<stop offset="0.7754" stop-color="#FFA500"/>
<stop offset="1" stop-color="#FF9C00"/>
</linearGradient>
<linearGradient id="paint2_linear_42001_426" x1="50.9354" y1="27.132" x2="23.5025" y2="-1.00426" gradientUnits="userSpaceOnUse">
<stop stop-color="#FF3A44"/>
<stop offset="1" stop-color="#C31162"/>
</linearGradient>
<linearGradient id="paint3_linear_42001_426" x1="29.2563" y1="53.8056" x2="41.5063" y2="41.2416" gradientUnits="userSpaceOnUse">
<stop stop-color="#32A071"/>
<stop offset="0.0685" stop-color="#2DA771"/>
<stop offset="0.4762" stop-color="#15CF74"/>
<stop offset="0.8009" stop-color="#06E775"/>
<stop offset="1" stop-color="#00F076"/>
</linearGradient>
</defs>
</svg>
