<svg width="238" height="690" viewBox="0 0 238 690" fill="none" xmlns="http://www.w3.org/2000/svg">
<path d="M135.723 0L0 135.723L135.723 271.445L168.899 238.269L66.3535 135.723L168.899 33.1768L135.723 0ZM135.734 106.633L102.558 139.81L204.923 242.175L0.00390625 447.094L135.727 582.816L168.903 549.64L66.3574 447.094L238.1 275.352L238.28 275.532L271.457 242.355L135.734 106.633ZM68.043 242.814L19.7861 291.071L68.043 339.328L116.3 291.071L68.043 242.814ZM135.734 418.004L102.558 451.181L205.104 553.727L102.558 656.272L135.734 689.449L271.457 553.727L135.734 418.004ZM230.871 322.182L155.47 397.583L230.871 472.984L306.272 397.583L230.871 322.182Z" fill="#E5F0F7"/>
</svg>
