<svg width="1400" height="90" viewBox="0 0 1400 90" fill="none" xmlns="http://www.w3.org/2000/svg">
<path d="M403.73 50.1182L393.981 59.8682L363.847 29.7334L343.581 49.9971L343.702 50.1182L303.817 90.0029L294.067 80.2529L294.07 80.25L263.936 50.1152L273.685 40.3662L303.819 70.502L324.08 50.2402L323.96 50.1201L363.847 10.2334L403.73 50.1182ZM220.866 50.1172L211.117 59.8672L180.981 29.7324L150.846 59.8691L150.809 59.832L120.639 90.002L110.889 80.2529L110.891 80.25L80.7559 50.1152L90.5059 40.3662L120.641 70.501L150.772 40.3691L150.81 40.4062L180.982 10.2334L220.866 50.1172ZM586.905 50.1172L577.156 59.8672L547.022 29.7344L516.888 59.8691L516.851 59.832L486.682 90.002L476.932 80.2529L476.934 80.25L446.799 50.1152L456.549 40.3662L486.684 70.501L516.815 40.3691L516.852 40.4053L537.273 19.9844L537.271 19.9834L547.021 10.2334L586.905 50.1172ZM89.3613 10.2842L89.3643 10.2822L99.1143 20.0322L99.1113 20.0342L129.195 50.1182L119.446 59.8672L89.3623 29.7832L29.1455 90L-10.7393 50.1162L-0.989258 40.3662L29.1455 70.501L79.6123 20.0332L79.5615 19.9824L89.3105 10.2334L89.3613 10.2842ZM272.532 10.2842L272.535 10.2822L282.285 20.0322L282.282 20.0342L312.365 50.1172L302.616 59.8672L272.532 29.7832L222.067 80.249L222.069 80.251L212.32 90L212.318 89.998V89.999L202.568 80.249H202.569L172.437 50.1162L182.186 40.3672L212.318 70.5L262.783 20.0342L262.732 19.9834L272.481 10.2334L272.532 10.2842ZM455.398 10.2822H455.399L465.099 19.9824L495.234 50.1182L485.484 59.8682L455.398 29.7822L404.932 80.249L404.934 80.25L395.184 90L395.182 89.999L385.432 80.249H385.433L355.3 50.1162L365.05 40.3662L395.183 70.499L445.648 20.0322L445.6 19.9834L455.35 10.2334L455.398 10.2822ZM678.412 50.1172L668.663 59.8672L638.575 29.7793L578.354 90L538.47 50.1162L548.22 40.3662L578.355 70.502L628.826 20.0303L628.779 19.9834L638.528 10.2334L678.412 50.1172ZM770.01 50.1172L760.261 59.8672L730.126 29.7334L709.749 50.1104L709.753 50.1143L669.868 89.999L669.867 89.998L669.866 90L629.982 50.1162L639.732 40.3662L669.867 70.501L690.243 50.123L690.24 50.1201L730.126 10.2334L770.01 50.1172ZM821.685 10.2852L821.688 10.2822L831.437 20.0322L831.434 20.0342L861.518 50.1182L851.769 59.8672L821.685 29.7832L761.47 89.999L761.469 89.998L761.468 90L721.584 50.1162L731.334 40.3662L761.469 70.501L811.936 20.0342L811.884 19.9824L821.633 10.2334L821.685 10.2852ZM923.068 19.9805L923.066 19.9824L953.201 50.1182L943.452 59.8672L913.316 29.7324L883.185 59.8643L883.144 59.8232L852.968 90L813.083 50.1162L822.833 40.3662L852.968 70.501L883.104 40.3643L883.145 40.4043L913.319 10.2314L923.068 19.9805ZM1004.86 10.2861L1004.86 10.2822L1014.61 20.0312L1014.61 20.0352L1044.69 50.1182L1034.94 59.8682L1004.86 29.7852L944.644 90L904.759 50.1162L914.508 40.3672L944.644 70.502L995.107 20.0361L995.055 19.9834L1004.8 10.2334L1004.86 10.2861ZM1136.05 50.1172L1126.3 59.8672L1096.17 29.7324L1075.91 49.9932L1076.03 50.1143L1036.14 90L996.258 50.1162L1006.01 40.3662L1036.14 70.501L1056.4 50.2402L1056.28 50.1201L1096.17 10.2334L1136.05 50.1172ZM1187.72 10.2842L1187.72 10.2822L1197.47 20.0322L1197.47 20.0342L1227.55 50.1182L1217.8 59.8672L1187.72 29.7832L1137.25 80.249L1137.26 80.25L1127.51 90L1127.51 89.998L1127.5 89.999L1117.75 80.249H1117.76L1087.62 50.1162L1097.37 40.3662L1127.51 70.499L1177.97 20.0332L1177.92 19.9824L1187.67 10.2334L1187.72 10.2842ZM1319.23 50.1172L1309.48 59.8672L1279.35 29.7344L1249.21 59.8691L1249.18 59.8359L1219.01 90L1179.13 50.1162L1188.88 40.3662L1219.01 70.501L1249.15 40.3643L1249.18 40.3965L1269.6 19.9844L1269.59 19.9834L1279.34 10.2334L1319.23 50.1172ZM1410.74 50.1182L1400.99 59.8682L1370.9 29.7793L1310.68 90L1270.79 50.1162L1280.54 40.3662L1310.68 70.501L1361.15 20.0303L1361.1 19.9834L1370.85 10.2334L1410.74 50.1182ZM1442.07 50.1143L1411.93 80.249L1411.93 80.25L1402.18 90L1362.3 50.1162L1372.05 40.3662L1402.18 70.499L1432.32 40.3643L1442.07 50.1143ZM89.1758 70.0059L74.9941 84.1875L60.8135 70.0059L74.9941 55.8252L89.1758 70.0059ZM180.569 70.0059L166.389 84.1875L152.207 70.0059L166.389 55.8252L180.569 70.0059ZM272.354 70.0059L258.174 84.1875L243.992 70.0059L258.174 55.8252L272.354 70.0059ZM363.889 70.0059L349.707 84.1875L335.526 70.0059L349.707 55.8252L363.889 70.0059ZM455.215 70.0059L441.033 84.1875L426.853 70.0059L441.033 55.8252L455.215 70.0059ZM546.576 70.0059L532.396 84.1875L518.214 70.0059L532.396 55.8252L546.576 70.0059ZM638.39 70.0059L624.209 84.1875L610.027 70.0059L624.209 55.8252L638.39 70.0059ZM729.892 70.0059L715.71 84.1875L701.529 70.0059L715.71 55.8252L729.892 70.0059ZM821.497 70.0059L807.316 84.1875L793.135 70.0059L807.316 55.8252L821.497 70.0059ZM912.898 70.0059L898.718 84.1875L884.537 70.0059L898.718 55.8252L912.898 70.0059ZM1004.68 70.0059L990.495 84.1875L976.314 70.0059L990.495 55.8252L1004.68 70.0059ZM1096.21 70.0059L1082.03 84.1875L1067.85 70.0059L1082.03 55.8252L1096.21 70.0059ZM1187.54 70.0059L1173.35 84.1875L1159.17 70.0059L1173.35 55.8252L1187.54 70.0059ZM1278.9 70.0059L1264.72 84.1875L1250.54 70.0059L1264.72 55.8252L1278.9 70.0059ZM1370.71 70.0059L1356.53 84.1875L1342.35 70.0059L1356.53 55.8252L1370.71 70.0059ZM37.6963 50.1182L27.9463 59.8682L-2.18652 29.7354L-32.3213 59.8691L-42.0703 50.1201L-11.9365 19.9854L-11.9385 19.9834L-2.18848 10.2334L37.6963 50.1182ZM65.8506 22.1582L43.6924 44.3164L21.5342 22.1582L43.6924 0L65.8506 22.1582ZM157.668 22.1582L135.51 44.3164L113.352 22.1582L135.51 0L157.668 22.1582ZM249.029 22.1582L226.871 44.3164L204.714 22.1582L226.871 0L249.029 22.1582ZM340.667 22.1582L318.509 44.3164L296.352 22.1582L318.509 0L340.667 22.1582ZM431.894 22.1582L409.735 44.3164L387.577 22.1582L409.735 0L431.894 22.1582ZM523.675 22.1582L501.517 44.3164L479.358 22.1582L501.517 0L523.675 22.1582ZM615.064 22.1582L592.906 44.3164L570.749 22.1582L592.906 0L615.064 22.1582ZM706.678 22.1582L684.521 44.3164L662.362 22.1582L684.521 0L706.678 22.1582ZM798.176 22.1582L776.018 44.3164L753.86 22.1582L776.018 0L798.176 22.1582ZM889.989 22.1582L867.831 44.3164L845.673 22.1582L867.831 0L889.989 22.1582ZM981.352 22.1582L959.193 44.3164L937.035 22.1582L959.193 0L981.352 22.1582ZM1073 22.1582L1050.84 44.3164L1028.68 22.1582L1050.84 0L1073 22.1582ZM1164.21 22.1582L1142.06 44.3164L1119.9 22.1582L1142.06 0L1164.21 22.1582ZM1256 22.1582L1233.84 44.3164L1211.68 22.1582L1233.84 0L1256 22.1582ZM1347.39 22.1582L1325.23 44.3164L1303.07 22.1582L1325.23 0L1347.39 22.1582Z" fill="#E5F0F7"/>
</svg>
