<svg width="40" height="40" viewBox="0 0 40 40" fill="none" xmlns="http://www.w3.org/2000/svg">
<path d="M20 0.5C30.7696 0.5 39.5 9.23045 39.5 20C39.5 30.7696 30.7696 39.5 20 39.5C9.23045 39.5 0.5 30.7696 0.5 20C0.5 9.23045 9.23045 0.5 20 0.5Z" fill="#FDFFFF"/>
<path d="M20 0.5C30.7696 0.5 39.5 9.23045 39.5 20C39.5 30.7696 30.7696 39.5 20 39.5C9.23045 39.5 0.5 30.7696 0.5 20C0.5 9.23045 9.23045 0.5 20 0.5Z" stroke="#EBEDED"/>
<path d="M15.7819 8.89264C16.3945 8.70793 17.0519 8.73862 17.6447 8.97959C18.2374 9.22056 18.7297 9.65727 19.0397 10.217L19.1433 10.4256L20.0701 12.485C20.3508 13.1102 20.4418 13.8041 20.3318 14.4805C20.2218 15.157 19.9157 15.7862 19.4513 16.2902L19.2651 16.475L17.8049 17.8372C17.5417 18.0864 17.7391 19.051 18.6911 20.7002C19.5479 22.1842 20.2451 22.8772 20.5881 22.915H20.6483L20.7225 22.901L23.5925 22.0232C23.9782 21.9049 24.3899 21.9003 24.7782 22.0098C25.1665 22.1192 25.515 22.3383 25.7821 22.6406L25.9095 22.8016L27.8093 25.4336C28.1816 25.9495 28.3672 26.5768 28.3354 27.2123C28.3036 27.8477 28.0563 28.4533 27.6343 28.9294L27.4635 29.1058L26.7047 29.8254C26.0233 30.4707 25.171 30.9068 24.249 31.0817C23.327 31.2567 22.3741 31.1632 21.5037 30.8124C18.7947 29.7204 16.3335 27.2256 14.0977 23.3532C11.8577 19.471 10.9267 16.0872 11.3425 13.1892C11.4683 12.3132 11.8291 11.4876 12.3864 10.8001C12.9437 10.1126 13.6769 9.58894 14.5079 9.28464L14.7781 9.19504L15.7819 8.89264Z" fill="#0866A8"/>
</svg>
