<svg width="1380" height="600" viewBox="0 0 1380 600" fill="none" xmlns="http://www.w3.org/2000/svg">
<g opacity="0.04">
<path d="M42.9631 -50.4862C35.0763 -49.0811 27.5453 -46.7843 20.4887 -43.6865C15.9134 -41.7797 11.5372 -39.5023 7.40273 -36.9917C20.8498 15.0756 71.6452 48.8367 124.834 39.3612C128.549 38.6994 132.1 37.8605 135.616 36.8247C144.505 34.2194 152.796 30.4923 160.395 25.8669C146.947 -26.2005 96.152 -59.9616 42.9631 -50.4862Z" fill="#FDFFFF"/>
<path d="M-7.55842 -35.4149C-18.8834 -30.1922 -29.4289 -22.795 -38.6605 -13.2421C-76.4277 25.9348 -77.5983 87.4928 -42.868 128.203C-35.4013 124.759 -28.3553 120.435 -21.7413 115.17C-18.2624 112.367 -14.9588 109.325 -11.7664 106.03C24.2323 68.6696 26.9907 10.8495 -3.00479 -29.6825C-4.42574 -31.6794 -5.96504 -33.5853 -7.55842 -35.4149Z" fill="#FDFFFF"/>
<path d="M92.2172 64.3898C84.6087 66.9218 77.4776 70.285 70.9288 74.3722C66.6684 76.9216 62.6571 79.8089 58.9179 82.8922C79.5485 132.481 134.572 158.546 185.884 141.471C189.468 140.278 192.865 138.934 196.199 137.4C204.631 133.535 212.313 128.646 219.184 122.968C198.553 73.3794 143.53 47.3142 92.2172 64.3898Z" fill="#FDFFFF"/>
<path d="M44.3125 86.6173C33.8377 93.4255 24.4401 102.273 16.6461 113.064C-15.2264 157.306 -7.72959 218.404 32.3697 253.672C39.2758 249.183 45.6418 243.883 51.4479 237.715C54.497 234.437 57.3392 230.948 60.0357 227.225C90.4131 185.037 85.0134 127.409 49.6256 91.6321C47.9384 89.8613 46.1469 88.1977 44.3125 86.6173Z" fill="#FDFFFF"/>
<path d="M159.915 168.815C152.724 172.389 146.119 176.72 140.19 181.686C136.317 184.808 132.738 188.23 129.454 191.807C156.64 238.029 214.685 256.133 263.18 232.029C266.568 230.346 269.748 228.538 272.842 226.552C280.667 221.542 287.609 215.623 293.641 209.037C266.455 162.815 208.41 144.712 159.915 168.815Z" fill="#FDFFFF"/>
<path d="M115.486 197.557C106.039 205.768 97.9361 215.848 91.6865 227.628C66.1444 275.912 81.8896 335.374 126.407 364.684C132.636 359.27 138.219 353.129 143.129 346.205C145.703 342.531 148.043 338.678 150.206 334.613C174.547 288.572 161.352 232.253 121.431 201.779C119.519 200.262 117.518 198.865 115.486 197.557Z" fill="#FDFFFF"/>
<path d="M239.415 277.163C233.204 282.29 227.731 288.02 223.058 294.214C219.979 298.141 217.252 302.294 214.848 306.53C251.606 345.345 312.179 349.707 354.07 315.132C356.996 312.717 359.693 310.229 362.266 307.586C368.775 300.916 374.224 293.562 378.637 285.766C341.879 246.951 281.306 242.589 239.415 277.163Z" fill="#FDFFFF"/>
<path d="M202.518 315.318C195.139 325.478 189.485 337.152 186.014 350.058C171.859 402.941 200.412 457.271 250.297 475.645C255.162 468.945 259.237 461.686 262.483 453.818C264.173 449.65 265.597 445.36 266.801 440.905C280.284 390.482 254.913 338.631 209.249 318.072C207.049 317.031 204.789 316.128 202.518 315.318Z" fill="#FDFFFF"/>
<path d="M341.445 363.022C335.982 368.961 331.333 375.395 327.537 382.179C325.016 386.497 322.874 390.988 321.063 395.518C362.703 428.874 423.296 424.799 460.138 384.743C462.711 381.945 465.048 379.106 467.241 376.131C472.791 368.621 477.198 360.581 480.52 352.246C438.88 318.891 378.286 322.965 341.445 363.022Z" fill="#FDFFFF"/>
<path d="M310.041 405.924C304.099 417.012 300.07 429.36 298.369 442.626C291.469 496.975 327.072 546.838 378.963 558.125C382.88 550.814 385.939 543.058 388.095 534.814C389.208 530.45 390.041 526.004 390.634 521.423C397.2 469.605 365.084 421.757 317.078 407.719C314.759 406.993 312.399 406.412 310.041 405.924Z" fill="#FDFFFF"/>
<path d="M462.538 423.409C457.913 430.041 454.159 437.051 451.298 444.292C449.373 448.914 447.846 453.657 446.653 458.393C492.339 485.76 551.84 473.45 583.033 428.728C585.211 425.604 587.15 422.472 588.928 419.225C593.432 411.026 596.733 402.457 598.918 393.744C553.232 366.377 493.731 378.687 462.538 423.409Z" fill="#FDFFFF"/>
<path d="M437.114 470.219C432.697 482.017 430.343 494.803 430.417 508.18C430.79 562.977 472.683 607.525 525.6 611.625C528.512 603.846 530.514 595.743 531.556 587.279C532.081 582.803 532.315 578.284 532.296 573.664C531.928 521.42 493.757 478.392 444.326 471.037C441.931 470.634 439.515 470.38 437.114 470.219Z" fill="#FDFFFF"/>
<path d="M576.934 468.157C573.25 475.369 570.48 482.836 568.626 490.406C567.343 495.252 566.473 500.163 565.931 505.021C614.887 525.769 672.16 505.292 697.009 456.651C698.744 453.253 700.241 449.881 701.563 446.417C704.915 437.668 707.026 428.721 708.012 419.787C659.056 399.038 601.783 419.515 576.934 468.157Z" fill="#FDFFFF"/>
<path d="M558.092 518.043C555.313 530.345 554.711 543.337 556.594 556.578C564.375 610.804 611.897 649.099 664.868 645.794C666.7 637.683 667.587 629.377 667.475 620.849C667.389 616.342 667.011 611.833 666.366 607.259C658.935 555.561 615.305 518.254 565.347 517.849C562.92 517.784 560.493 517.868 558.092 518.043Z" fill="#FDFFFF"/>
<path d="M700.893 496.283C698.491 504.032 697.033 511.872 696.494 519.653C696.056 524.651 696.033 529.641 696.326 534.52C748.077 546.386 801.007 516.188 817.208 463.926C818.339 460.276 819.24 456.692 819.953 453.049C821.767 443.844 822.323 434.661 821.775 425.689C770.024 413.823 717.094 444.021 700.893 496.283Z" fill="#FDFFFF"/>
<path d="M690.809 548.724C690.164 561.327 691.781 574.23 695.889 586.942C712.778 638.993 766.102 668.392 817.716 655.862C818.141 647.552 817.601 639.216 816.04 630.835C815.189 626.411 814.049 622.036 812.636 617.644C796.521 568.022 747.199 538.914 697.922 547.263C695.52 547.623 693.144 548.131 690.809 548.724Z" fill="#FDFFFF"/>
<path d="M831.85 503.623C830.744 511.669 830.584 519.645 831.321 527.41C831.703 532.413 832.495 537.337 833.579 542.1C886.551 545.12 933.83 506.458 941.289 452.198C941.81 448.408 942.114 444.722 942.223 441.009C942.511 431.627 941.563 422.478 939.559 413.721C886.587 410.701 839.308 449.363 831.85 503.623Z" fill="#FDFFFF"/>
<path d="M830.447 557.055C831.865 569.593 835.563 582.047 841.686 593.895C866.828 642.395 924.21 662.444 973.07 641.427C972.135 633.16 970.244 625.029 967.338 617.025C965.777 612.805 963.94 608.681 961.83 604.587C937.849 558.352 884.461 537.919 837.223 554.42C834.913 555.178 832.653 556.079 830.447 557.055Z" fill="#FDFFFF"/>
<path d="M949.814 496.62C949.872 504.743 950.857 512.659 952.698 520.232C953.794 525.125 955.282 529.881 957.037 534.434C1009.88 529.611 1051.12 484.389 1050.72 429.605C1050.7 425.778 1050.47 422.087 1050.05 418.397C1048.99 409.073 1046.74 400.16 1043.5 391.791C990.658 396.614 949.42 441.836 949.814 496.62Z" fill="#FDFFFF"/>
<path d="M956.081 549.676C959.281 561.872 964.723 573.648 972.479 584.467C1004.3 628.746 1063.95 640.121 1109.28 612.123C1107.17 604.082 1104.13 596.316 1100.11 588.826C1097.96 584.881 1095.55 581.072 1092.88 577.332C1062.53 535.124 1006.78 522.78 962.408 546.07C960.231 547.161 958.124 548.385 956.081 549.676Z" fill="#FDFFFF"/>
<path d="M1084.8 461.381C1086.03 469.408 1088.15 477.091 1091.06 484.308C1092.85 488.986 1095.01 493.469 1097.41 497.711C1148.98 485.079 1183.24 434.211 1174.93 380.077C1174.35 376.297 1173.59 372.679 1172.64 369.092C1170.24 360.026 1166.73 351.544 1162.32 343.747C1110.74 356.379 1076.49 407.248 1084.8 461.381Z" fill="#FDFFFF"/>
<path d="M1098.68 512.927C1103.61 524.515 1110.69 535.354 1119.93 544.903C1157.81 583.969 1218.45 586.347 1259.25 551.908C1256 544.268 1251.87 537.037 1246.81 530.227C1244.11 526.644 1241.18 523.234 1238 519.932C1201.87 482.696 1144.94 478.779 1104.42 508.419C1102.42 509.822 1100.51 511.346 1098.68 512.927Z" fill="#FDFFFF"/>
<path d="M1197.97 412.983C1200.43 420.714 1203.71 427.965 1207.71 434.629C1210.2 438.963 1213.03 443.047 1216.05 446.855C1265.03 426.17 1290.99 370.479 1274.41 318.339C1273.26 314.697 1271.95 311.245 1270.45 307.855C1266.68 299.282 1261.9 291.464 1256.34 284.466C1207.36 305.152 1181.39 360.843 1197.97 412.983Z" fill="#FDFFFF"/>
<path d="M1219.67 461.694C1226.33 472.354 1235 481.931 1245.6 489.891C1289.05 522.443 1349.31 515.138 1384.27 474.632C1379.88 467.604 1374.69 461.119 1368.64 455.199C1365.42 452.089 1362 449.189 1358.34 446.435C1316.91 415.41 1260.07 420.604 1224.64 456.329C1222.88 458.031 1221.23 459.841 1219.67 461.694Z" fill="#FDFFFF"/>
<path d="M1309.73 341.155C1313.35 348.403 1317.7 355.046 1322.67 360.996C1325.8 364.884 1329.22 368.47 1332.79 371.754C1377.99 343.572 1395.08 284.454 1370.68 235.576C1368.98 232.162 1367.16 228.959 1365.16 225.846C1360.12 217.975 1354.19 211.009 1347.62 204.977C1302.42 233.159 1285.34 292.277 1309.73 341.155Z" fill="#FDFFFF"/>
<path d="M1338.63 385.838C1346.85 395.314 1356.89 403.402 1368.58 409.587C1416.51 434.866 1474.91 418.116 1503.21 372.574C1497.8 366.327 1491.67 360.743 1484.78 355.853C1481.13 353.29 1477.3 350.967 1473.27 348.826C1427.57 324.736 1372.23 338.858 1342.72 379.752C1341.25 381.712 1339.9 383.76 1338.63 385.838Z" fill="#FDFFFF"/>
</g>
</svg>
