<svg width="73" height="24" viewBox="0 0 73 24" fill="none" xmlns="http://www.w3.org/2000/svg">
<g clip-path="url(#clip0_42001_1450)">
<path d="M31.9689 12.3125V9.39308H31.2344V7.89889H31.9689V6.32422H33.7133V7.89889H35.1594V9.39308H33.7133V12.0252C33.7133 12.4275 33.8855 12.6229 34.2757 12.6229C34.597 12.6229 34.884 12.5424 35.1364 12.4045V13.8067C34.7692 14.0251 34.3446 14.1631 33.7593 14.1631C32.6919 14.1631 31.9689 13.7378 31.9689 12.3125Z" fill="#FDFFFF"/>
<path d="M35.9727 11.011V10.988C35.9727 9.22946 37.2236 7.78125 39.014 7.78125C41.0683 7.78125 42.0093 9.3789 42.0093 11.126C42.0093 11.2639 41.9979 11.4248 41.9864 11.5857H37.7056C37.8778 12.3788 38.4287 12.7926 39.209 12.7926C39.7944 12.7926 40.219 12.6087 40.7011 12.1604L41.6995 13.0455C41.1257 13.7581 40.2993 14.1948 39.1861 14.1948C37.3384 14.1948 35.9727 12.896 35.9727 11.011ZM40.3108 10.4938C40.2076 9.71221 39.7485 9.18347 39.014 9.18347C38.2909 9.18347 37.8204 9.70072 37.6827 10.4938H40.3108Z" fill="#FDFFFF"/>
<path d="M43.0078 11.011V10.988C43.0078 9.22946 44.3506 7.78125 46.2327 7.78125C47.3919 7.78125 48.1149 8.17203 48.6887 8.81567L47.6214 9.96507C47.2312 9.55128 46.841 9.28693 46.2213 9.28693C45.349 9.28693 44.7293 10.057 44.7293 10.9651V10.988C44.7293 11.9305 45.3376 12.6891 46.2901 12.6891C46.8755 12.6891 47.2771 12.4363 47.7017 12.034L48.7232 13.0684C48.1264 13.7236 47.4378 14.1948 46.2098 14.1948C44.3621 14.1948 43.0078 12.7696 43.0078 11.011Z" fill="#FDFFFF"/>
<path d="M49.8594 5.66797H51.6039V8.77133C52.0055 8.25409 52.522 7.78286 53.4057 7.78286C54.7255 7.78286 55.4944 8.65639 55.4944 10.0701V14.0585H53.75V10.6218C53.75 9.79426 53.3598 9.36902 52.6942 9.36902C52.0285 9.36902 51.6039 9.79426 51.6039 10.6218V14.0585H49.8594V5.66797Z" fill="#FDFFFF"/>
<path d="M57.0117 7.89619H58.7562V8.76972C59.1579 8.25248 59.6743 7.78125 60.558 7.78125C61.8778 7.78125 62.6467 8.65478 62.6467 10.0685V14.0569H60.9023V10.6202C60.9023 9.79265 60.5121 9.36741 59.8465 9.36741C59.1808 9.36741 58.7562 9.79265 58.7562 10.6202V14.0569H57.0117V7.89619Z" fill="#FDFFFF"/>
<path d="M63.8633 11.011V10.988C63.8633 9.21797 65.2864 7.78125 67.203 7.78125C69.1081 7.78125 70.5197 9.195 70.5197 10.9651V10.988C70.5197 12.7581 69.0966 14.1948 67.18 14.1948C65.2749 14.1948 63.8633 12.7811 63.8633 11.011ZM68.7982 11.011V10.988C68.7982 10.08 68.1441 9.28693 67.18 9.28693C66.1816 9.28693 65.5848 10.057 65.5848 10.9651V10.988C65.5848 11.8961 66.2389 12.6891 67.203 12.6891C68.2014 12.6891 68.7982 11.919 68.7982 11.011Z" fill="#FDFFFF"/>
<path d="M31.6836 17.7348H33.428V18.9761C33.7838 18.1256 34.3576 17.5738 35.3905 17.6199V19.4474H35.2987C34.1396 19.4474 33.428 20.1485 33.428 21.6197V23.8955H31.6836V17.7348Z" fill="#FDFFFF"/>
<path d="M35.8242 22.1237V22.1007C35.8242 20.7559 36.8456 20.1352 38.3032 20.1352C38.9229 20.1352 39.3705 20.2387 39.8066 20.3881V20.2847C39.8066 19.5606 39.359 19.1583 38.4868 19.1583C37.8212 19.1583 37.3506 19.2847 36.7882 19.4916L36.3521 18.1583C37.0292 17.8595 37.6949 17.6641 38.7393 17.6641C39.6918 17.6641 40.3805 17.9169 40.8165 18.3537C41.2756 18.8135 41.4822 19.4916 41.4822 20.3192V23.8938H39.7951V23.2271C39.3705 23.6983 38.7852 24.0087 37.9359 24.0087C36.7768 24.0087 35.8242 23.342 35.8242 22.1237ZM39.8296 21.7214V21.4111C39.5312 21.2732 39.1409 21.1812 38.7163 21.1812C37.9703 21.1812 37.5113 21.48 37.5113 22.0318V22.0547C37.5113 22.526 37.9015 22.8018 38.4638 22.8018C39.2787 22.8018 39.8296 22.3535 39.8296 21.7214Z" fill="#FDFFFF"/>
<path d="M43.2855 19.2263H42.5625V17.7896H43.2855V17.3988C43.2855 16.7206 43.4577 16.2264 43.779 15.9046C44.1003 15.5828 44.5709 15.4219 45.1906 15.4219C45.7415 15.4219 46.1088 15.4908 46.4301 15.5943V17.0425C46.1776 16.9505 45.9366 16.8931 45.6382 16.8931C45.2366 16.8931 45.007 17.1 45.007 17.5597V17.8011H46.4186V19.2263H45.03V23.8929H43.2855V19.2263Z" fill="#FDFFFF"/>
<path d="M47.6564 22.1485V19.229H46.9219V17.7348H47.6564V16.1602H49.4008V17.7348H50.8469V19.229H49.4008V21.8611C49.4008 22.2634 49.5729 22.4588 49.9632 22.4588C50.2845 22.4588 50.5715 22.3784 50.8239 22.2404V23.6427C50.4567 23.8611 50.032 23.999 49.4467 23.999C48.3794 23.999 47.6564 23.5737 47.6564 22.1485Z" fill="#FDFFFF"/>
<path d="M54.1133 17.8203H55.0224C55.755 17.8203 56.2612 18.3239 56.2612 18.9809V18.9876C56.2612 19.6446 55.755 20.1549 55.0224 20.1549H54.1133V17.8203ZM55.0224 19.6913C55.442 19.6913 55.725 19.4078 55.725 18.9942V18.9876C55.725 18.574 55.442 18.2839 55.0224 18.2839H54.6261V19.6913H55.0224Z" fill="#FDFFFF"/>
<path d="M57.8086 17.7188H58.3414V18.169H57.8086V17.7188ZM57.8219 18.3658H58.3281V20.1534H57.8219V18.3658Z" fill="#FDFFFF"/>
<path d="M59.9454 20.5065L60.1186 20.1263C60.3017 20.2297 60.4849 20.2897 60.7213 20.2897C61.0677 20.2897 61.2308 20.123 61.2308 19.8028V19.7161C61.081 19.8962 60.9178 20.0062 60.6481 20.0062C60.2318 20.0062 59.8555 19.7028 59.8555 19.1725V19.1658C59.8555 18.6321 60.2384 18.332 60.6481 18.332C60.9245 18.332 61.0877 18.4487 61.2241 18.5988V18.3653H61.7303V19.7494C61.7303 20.0696 61.6537 20.3031 61.5039 20.4531C61.3374 20.6199 61.081 20.6932 60.7346 20.6932C60.4449 20.6932 60.1718 20.6266 59.9454 20.5065ZM61.2308 19.1725V19.1658C61.2308 18.9223 61.041 18.7523 60.7946 18.7523C60.5481 18.7523 60.3617 18.9223 60.3617 19.1658V19.1725C60.3617 19.4192 60.5481 19.586 60.7946 19.586C61.041 19.586 61.2308 19.4159 61.2308 19.1725Z" fill="#FDFFFF"/>
<path d="M63.3281 17.7188H63.861V18.169H63.3281V17.7188ZM63.3414 18.3658H63.8476V20.1534H63.3414V18.3658Z" fill="#FDFFFF"/>
<path d="M65.5373 19.6477V18.8006H65.3242V18.367H65.5373V17.9102H66.0435V18.367H66.4631V18.8006H66.0435V19.5643C66.0435 19.6811 66.0935 19.7378 66.2067 19.7378C66.2999 19.7378 66.3832 19.7144 66.4565 19.6744V20.0813C66.3499 20.1447 66.2267 20.1847 66.0569 20.1847C65.7472 20.1847 65.5373 20.0613 65.5373 19.6477Z" fill="#FDFFFF"/>
<path d="M67.8633 19.6417V19.635C67.8633 19.2448 68.1597 19.0648 68.5826 19.0648C68.7624 19.0648 68.8923 19.0948 69.0189 19.1381V19.1081C69.0189 18.898 68.889 18.7812 68.6359 18.7812C68.4428 18.7812 68.3062 18.818 68.143 18.8779L68.0165 18.4911C68.213 18.4044 68.4061 18.3477 68.7091 18.3477C68.9856 18.3477 69.1854 18.4211 69.3119 18.5478C69.4451 18.6812 69.505 18.8779 69.505 19.1181V20.1553H69.0155V19.9619C68.8923 20.0986 68.7224 20.1887 68.4761 20.1887C68.1397 20.1887 67.8633 19.9952 67.8633 19.6417ZM69.0255 19.5249V19.4349C68.9389 19.3949 68.8257 19.3682 68.7025 19.3682C68.486 19.3682 68.3529 19.4549 68.3529 19.6151V19.6217C68.3529 19.7584 68.4661 19.8385 68.6292 19.8385C68.8657 19.8385 69.0255 19.7084 69.0255 19.5249Z" fill="#FDFFFF"/>
<path d="M71.0977 17.7188H71.6039V20.1534H71.0977V17.7188Z" fill="#FDFFFF"/>
<path d="M55.0008 22.1169C55.5202 22.2303 55.76 22.4204 55.76 22.7805C55.76 23.1841 55.427 23.4443 54.9641 23.4443C54.5944 23.4443 54.2914 23.3209 54.0117 23.0707L54.1748 22.8772C54.418 23.0974 54.6511 23.2074 54.9741 23.2074C55.2871 23.2074 55.4936 23.0441 55.4936 22.8072C55.4936 22.5871 55.377 22.4637 54.8875 22.3603C54.3514 22.2436 54.1049 22.0702 54.1049 21.6833C54.1049 21.3098 54.4279 21.043 54.8709 21.043C55.2105 21.043 55.4536 21.1397 55.6901 21.3298L55.5369 21.5332C55.3204 21.3565 55.104 21.2797 54.8642 21.2797C54.5612 21.2797 54.3681 21.4465 54.3681 21.66C54.3681 21.8834 54.4879 22.0068 55.0008 22.1169Z" fill="#FDFFFF"/>
<path d="M57.412 23.4533C56.8959 23.4533 56.5195 23.0465 56.5195 22.5562C56.5195 22.0659 56.8991 21.6523 57.4187 21.6523C57.9348 21.6523 58.3144 22.0592 58.3144 22.5495C58.3144 23.0398 57.9315 23.4533 57.412 23.4533ZM57.412 21.8791C57.0391 21.8791 56.7826 22.176 56.7826 22.5495C56.7826 22.923 57.0557 23.2232 57.4187 23.2232C57.7916 23.2232 58.0514 22.9263 58.0514 22.5562C58.0514 22.1793 57.775 21.8791 57.412 21.8791Z" fill="#FDFFFF"/>
<path d="M59.1719 23.4112V20.9766H59.4283V23.4112H59.1719Z" fill="#FDFFFF"/>
<path d="M61.6198 21.6875H61.8729V23.4117H61.6198V23.1115C61.5033 23.2984 61.3268 23.4484 61.0305 23.4484C60.6142 23.4484 60.3711 23.1683 60.3711 22.758V21.6875H60.6275V22.6947C60.6275 23.0148 60.8006 23.2149 61.1037 23.2149C61.3967 23.2149 61.6198 22.9982 61.6198 22.6747V21.6875Z" fill="#FDFFFF"/>
<path d="M63.172 22.9222C63.172 23.1323 63.2885 23.209 63.4617 23.209C63.5483 23.209 63.6215 23.1924 63.7115 23.149V23.3692C63.6215 23.4158 63.5249 23.4425 63.4017 23.4425C63.1253 23.4425 62.9156 23.3057 62.9156 22.9556V21.9151H62.6758V21.6883H62.9156V21.168H63.172V21.6883H63.7181V21.9151H63.172V22.9222Z" fill="#FDFFFF"/>
<path d="M64.5508 21.3108V21.0273H64.8438V21.3108H64.5508ZM64.5674 23.4119V21.6877H64.8238V23.4119H64.5674Z" fill="#FDFFFF"/>
<path d="M66.5761 23.4533C66.0599 23.4533 65.6836 23.0465 65.6836 22.5562C65.6836 22.0659 66.0632 21.6523 66.5827 21.6523C67.0989 21.6523 67.4785 22.0592 67.4785 22.5495C67.4785 23.0398 67.0956 23.4533 66.5761 23.4533ZM66.5761 21.8791C66.2031 21.8791 65.9467 22.176 65.9467 22.5495C65.9467 22.923 66.2197 23.2232 66.5827 23.2232C66.9557 23.2232 67.2154 22.9263 67.2154 22.5562C67.2154 22.1793 66.9391 21.8791 66.5761 21.8791Z" fill="#FDFFFF"/>
<path d="M68.5728 23.4133H68.3164V21.6891H68.5728V21.9892C68.686 21.8024 68.8659 21.6523 69.1622 21.6523C69.5785 21.6523 69.8216 21.9325 69.8216 22.3428V23.4133H69.5651V22.4061C69.5651 22.0859 69.392 21.8858 69.089 21.8858C68.7926 21.8858 68.5728 22.1026 68.5728 22.4261V23.4133Z" fill="#FDFFFF"/>
<path d="M71.3103 23.4439C71.0639 23.4439 70.7908 23.3472 70.5977 23.1904L70.7275 23.007C70.914 23.1471 71.1205 23.2271 71.3236 23.2271C71.53 23.2271 71.6799 23.1204 71.6799 22.9536V22.947C71.6799 22.7735 71.4768 22.7068 71.2504 22.6435C70.9806 22.5667 70.6809 22.4734 70.6809 22.1565V22.1499C70.6809 21.853 70.9273 21.6562 71.267 21.6562C71.4768 21.6562 71.7099 21.7296 71.8864 21.8464L71.7698 22.0398C71.61 21.9364 71.4268 21.8731 71.2603 21.8731C71.0572 21.8731 70.9273 21.9798 70.9273 22.1232V22.1298C70.9273 22.2933 71.1405 22.3566 71.3702 22.4267C71.6366 22.5067 71.923 22.6101 71.923 22.9203V22.927C71.923 23.2538 71.6533 23.4439 71.3103 23.4439Z" fill="#FDFFFF"/>
<path d="M28.0538 5.97306V11.9383H26.9474C24.2785 11.9383 22.0975 14.1077 22.0975 16.7979V23.8885H12.1564L16.124 19.9002V11.9383H8.17404V19.9002H12.1564L8.17404 23.8885H3.21336V11.9383H0.226562V5.97306H3.21336V0.0078125H9.16963V5.97306H22.0975V10.9412C22.0975 8.20418 24.3081 5.97306 27.0582 5.97306H28.0538Z" fill="#FDFFFF"/>
<path d="M72.3071 6.19572C71.8157 6.19572 71.4336 5.80063 71.4336 5.32122C71.4336 4.84121 71.8207 4.44141 72.3118 4.44141C72.8028 4.44141 73.1853 4.8365 73.1853 5.3165C73.1853 5.79591 72.7981 6.19572 72.3071 6.19572ZM72.3116 4.59544C71.9014 4.59544 71.592 4.92108 71.592 5.32102C71.592 5.72042 71.8992 6.04168 72.3073 6.04168C72.7175 6.04168 73.0268 5.71605 73.0268 5.31665C73.0268 4.91671 72.7197 4.59544 72.3116 4.59544ZM72.511 5.41773L72.7219 5.72752H72.4998L72.316 5.44887H72.166V5.72752H71.9753V4.86316H72.3588C72.565 4.86316 72.6973 4.96861 72.6973 5.14782C72.6973 5.28933 72.6209 5.3773 72.511 5.41773ZM72.352 5.03145H72.166V5.28496H72.3564C72.4529 5.28496 72.5045 5.2336 72.5045 5.1593C72.5045 5.07406 72.4461 5.03145 72.352 5.03145Z" fill="#5A5B5B"/>
</g>
<defs>
<clipPath id="clip0_42001_1450">
<rect width="73" height="24" fill="white" transform="translate(0 0.0078125)"/>
</clipPath>
</defs>
</svg>
