<svg width="40" height="40" viewBox="0 0 40 40" fill="none" xmlns="http://www.w3.org/2000/svg">
<path d="M20 0.5C30.7696 0.5 39.5 9.23045 39.5 20C39.5 30.7696 30.7696 39.5 20 39.5C9.23045 39.5 0.5 30.7696 0.5 20C0.5 9.23045 9.23045 0.5 20 0.5Z" fill="#FDFFFF"/>
<path d="M20 0.5C30.7696 0.5 39.5 9.23045 39.5 20C39.5 30.7696 30.7696 39.5 20 39.5C9.23045 39.5 0.5 30.7696 0.5 20C0.5 9.23045 9.23045 0.5 20 0.5Z" stroke="#EBEDED"/>
<path d="M20.0026 8.33203C26.4461 8.33203 31.6693 13.5552 31.6693 19.9987C31.6693 26.4422 26.4461 31.6654 20.0026 31.6654C17.9408 31.6689 15.9153 31.1233 14.1343 30.0845L8.34062 31.6654L9.91796 25.8694C8.87841 24.0878 8.33234 22.0614 8.33596 19.9987C8.33596 13.5552 13.5591 8.33203 20.0026 8.33203ZM16.0266 14.5154L15.7933 14.5247C15.6424 14.5351 15.495 14.5747 15.3593 14.6414C15.2328 14.7131 15.1173 14.8027 15.0163 14.9074C14.8763 15.0392 14.797 15.1535 14.7118 15.2644C14.2803 15.8254 14.0479 16.5142 14.0515 17.222C14.0538 17.7937 14.2031 18.3502 14.4365 18.8705C14.9136 19.9229 15.6988 21.037 16.7348 22.0695C16.9845 22.318 17.2295 22.5677 17.4931 22.7999C18.7805 23.9332 20.3144 24.7505 21.9731 25.1869L22.6358 25.2884C22.8516 25.3 23.0675 25.2837 23.2845 25.2732C23.6242 25.2553 23.9559 25.1633 24.2563 25.0037C24.4089 24.9248 24.558 24.8391 24.7031 24.747C24.7031 24.747 24.7525 24.7136 24.849 24.642C25.0065 24.5254 25.1033 24.4425 25.234 24.306C25.332 24.2049 25.4136 24.0875 25.479 23.9537C25.57 23.7635 25.661 23.4007 25.6983 23.0985C25.7263 22.8675 25.7181 22.7415 25.7146 22.6634C25.71 22.5385 25.6061 22.409 25.493 22.3542L24.814 22.0497C24.814 22.0497 23.799 21.6075 23.1783 21.3252C23.1133 21.2969 23.0437 21.2807 22.973 21.2774C22.8931 21.269 22.8124 21.2779 22.7363 21.3035C22.6603 21.329 22.5905 21.3707 22.532 21.4255C22.5261 21.4232 22.448 21.4897 21.6045 22.5117C21.556 22.5768 21.4894 22.6259 21.4129 22.6529C21.3364 22.6799 21.2537 22.6836 21.1751 22.6634C21.0991 22.6431 21.0246 22.6174 20.9523 22.5864C20.8076 22.5257 20.7575 22.5024 20.6583 22.4604C19.9885 22.1686 19.3685 21.7738 18.8208 21.2902C18.6738 21.1619 18.5373 21.0219 18.3973 20.8865C17.9383 20.4469 17.5383 19.9497 17.2073 19.4072L17.1385 19.2964C17.0898 19.2215 17.0498 19.1412 17.0195 19.0572C16.9751 18.8857 17.0906 18.748 17.0906 18.748C17.0906 18.748 17.3741 18.4377 17.506 18.2697C17.6343 18.1064 17.7428 17.9477 17.8128 17.8345C17.9505 17.6129 17.9936 17.3854 17.9213 17.2092C17.5946 16.4112 17.2571 15.6175 16.9086 14.828C16.8398 14.6717 16.6356 14.5597 16.4501 14.5375C16.3871 14.5298 16.3241 14.5235 16.2611 14.5189C16.1045 14.5099 15.9474 14.5114 15.791 14.5235L16.0266 14.5154Z" fill="#0866A8"/>
</svg>
