<svg width="998" height="432" viewBox="0 0 998 432" fill="none" xmlns="http://www.w3.org/2000/svg">
<path opacity="0.2" d="M960.422 366.131L1138.28 188.271L1195.82 245.816L960.417 481.224L902.872 423.68L902.878 423.674L725.015 245.811L782.558 188.267L960.422 366.131ZM775.777 10.707L775.784 10.7012L833.328 68.2461L833.322 68.252L1010.88 245.807L953.332 303.351L775.777 125.796L420.359 481.215L184.951 245.807L242.496 188.263L420.359 366.126L718.233 68.251L717.925 67.9424L775.469 10.3984L775.777 10.707ZM774.687 363.207L690.985 446.907L607.285 363.207L690.985 279.507L774.687 363.207ZM292.952 67.9375L292.946 67.9434L470.81 245.807L413.267 303.351L235.402 125.486L57.5439 303.346L0 245.801L235.407 10.3936L292.952 67.9375ZM637.029 80.7812L506.247 211.563L375.465 80.7812L506.247 -50.001L637.029 80.7812Z" fill="#02589F"/>
</svg>
